<svg xmlns="http://www.w3.org/2000/svg" width="1280" height="1280"><path fill="#FCFCFC" d="M0 0h1280v1280H0V0Z"/><path fill="#00803B" d="M697 177c2.15 1.69 4.204 3.383 6.25 5.188 1.154.997 2.309 1.993 3.465 2.988.562.485 1.124.97 1.702 1.471 2.874 2.457 5.843 4.79 8.806 7.138 3.53 2.816 7.027 5.673 10.527 8.528a986.241 986.241 0 0 0 15.563 12.437 756.849 756.849 0 0 1 14.707 11.8 2449.19 2449.19 0 0 0 11.043 9.012l2.093 1.702c4.487 3.643 8.994 7.26 13.512 10.865 3.424 2.747 6.816 5.533 10.21 8.316 8.775 7.189 17.58 14.34 26.45 21.41 3.49 2.8 6.954 5.63 10.422 8.457a886.467 886.467 0 0 0 15.438 12.313c5.08 3.96 10.018 8.056 14.912 12.244 5.083 4.33 10.323 8.448 15.595 12.545 3.77 2.933 7.453 5.97 11.121 9.027 5.157 3.68 10.022 4.245 16.184 3.559 5.255-1.785 7.383-4.163 10-9 .552-3.002.534-5.937.498-8.984l.017-2.678c.01-1.912.01-3.823.001-5.735-.012-3.032 0-6.063.016-9.095.027-5.348.033-10.695.031-16.043-.002-8.548.012-17.096.056-25.644.01-2.976.001-5.952-.009-8.928l.021-5.521-.023-2.48c.057-6.564 1.103-13.034 5.294-18.267l2.035-1.625 2.028-1.688c3.357-2.165 6.527-2.437 10.462-2.452l2.667-.018 2.904-.003 3.076-.015c3.358-.015 6.716-.022 10.074-.027l7.003-.017c4.894-.01 9.788-.017 14.682-.02 6.27-.006 12.54-.03 18.81-.058 4.822-.019 9.643-.024 14.464-.026 2.312-.003 4.624-.01 6.935-.024 3.234-.017 6.468-.015 9.702-.008l2.89-.028c5.94.037 10.436.711 15.01 4.884 4.288 5.506 4.504 9.578 4.5 16.349l.011 2.775c.011 3.081.015 6.162.019 9.244l.02 6.612c.015 4.754.026 9.508.036 14.262.015 7.517.04 15.034.065 22.552a63849.147 63849.147 0 0 1 .177 62.114l.005 2.023.005 2.02c.026 11.129.061 22.257.101 33.386.027 7.472.045 14.943.056 22.415.01 4.653.027 9.305.047 13.958.007 2.156.011 4.311.012 6.467 0 2.947.014 5.893.03 8.84l-.008 2.575c.055 6.378.318 12.57 4.565 17.63l2.777 2.34 3.024 2.579c3.071 2.486 6.15 4.949 9.297 7.34 3.442 2.655 6.81 5.398 10.18 8.144l2.067 1.684 4.23 3.447a10132.168 10132.168 0 0 0 12.55 10.21c4.394 3.57 8.808 7.114 13.235 10.643 3.574 2.87 7.112 5.782 10.656 8.688 2.45 2 4.913 3.981 7.387 5.953 4.331 3.456 8.637 6.942 12.937 10.438l2.065 1.678c3.47 2.822 6.938 5.646 10.404 8.474 6.343 5.171 12.704 10.311 19.156 15.347 5.38 4.201 10.646 8.515 15.875 12.903 6.757 5.665 13.592 11.216 20.57 16.605 3.533 2.766 6.995 5.616 10.457 8.47a569.83 569.83 0 0 0 5.852 4.733l2.934 2.352 2.652 2.11c4.971 4.415 8.236 8.392 8.66 15.077-.108 3.433-.49 6.045-2.25 9.063-4.268 3.842-6.662 5.123-12.336 5.147l-3.432.022-3.785.008-3.972.02c-4.356.021-8.712.031-13.069.041l-4.503.013c-7.058.019-14.115.033-21.173.041-8.134.01-16.268.036-24.403.077-6.293.03-12.586.045-18.879.048-3.755.002-7.51.011-11.265.036-3.54.024-7.078.028-10.618.018-1.904-.001-3.808.018-5.712.038-11.252-.068-19.044-3.122-27.478-10.447l-4.156-3.488-2.114-1.795c-3.371-2.849-6.8-5.625-10.23-8.404-.662-.54-1.325-1.078-2.008-1.634a810.206 810.206 0 0 0-13.054-10.366c-5.111-3.982-10.073-8.107-14.992-12.323-3.664-3.122-7.418-6.087-11.258-8.99-5.293-4.001-10.324-8.246-15.33-12.599-4.346-3.757-8.826-7.282-13.409-10.744-3.885-2.952-7.622-6.042-11.324-9.219-4.67-4.004-9.447-7.808-14.35-11.526-6.817-5.199-13.375-10.714-19.977-16.18-8.438-6.965-16.956-13.835-25.509-20.657-5.538-4.442-11.038-8.933-16.545-13.414a9524.528 9524.528 0 0 0-6.318-5.133c-5.9-4.79-11.799-9.583-17.676-14.402-5.763-4.721-11.584-9.367-17.41-14.008-5.879-4.691-11.713-9.435-17.543-14.186a809.143 809.143 0 0 0-13.36-10.619c-5.086-3.964-10.028-8.065-14.927-12.257-4.362-3.716-8.842-7.258-13.364-10.775-5.575-4.35-11.024-8.845-16.472-13.35a908.395 908.395 0 0 0-13.744-11.15 696.968 696.968 0 0 1-7.555-6.156 637.225 637.225 0 0 0-12.375-9.875c-6.785-5.299-13.425-10.764-20.059-16.25a2039.508 2039.508 0 0 0-27.632-22.41c-8.974-7.197-17.875-14.485-26.774-21.773a5246.692 5246.692 0 0 0-17.07-13.887c-1.626-1.319-3.25-2.64-4.875-3.96-9.487-7.67-16.355-12.246-28.965-11.532-2.009.277-4.016.582-6 1l-2-3c.723-2.715.723-2.715 2.063-5.938l1.437-3.507L624 261l1.313-3.242c2.008-4.934 4.086-9.792 6.542-14.52a191.2 191.2 0 0 0 2.633-5.383c8.139-16.968 18.618-31.002 34.278-41.628 6.534-4.499 9.942-8.508 13.84-15.27 1.669-2.759 3.108-4.764 5.8-6.574 3.76-.555 5.41.601 8.594 2.617Zm-54.302-3.48c1.616.337 3.237.648 4.862.94l2.48.474 2.232.404L654 176l1 3 3 1c-3.85 3.508-7.558 6.381-12.063 9-13.347 8.367-22.684 20.844-30.937 34l-1.214 1.91c-4.204 6.654-8.065 13.444-11.567 20.492l-1.037 2.081c-3.487 7.052-6.756 14.199-9.994 21.368a3704.94 3704.94 0 0 1-5.22 11.473l-1.039 2.28C575.033 304.269 564.885 325.925 552 346l-1.695 2.773C545.7 356.25 540.497 363.171 535 370l-1.266 1.587C519.364 389.446 502.749 405.81 484 419l-2.918 2.125c-5.504 3.96-11.215 7.482-17.082 10.875l-3.344 1.988c-23.571 13.82-49.17 23.907-75.404 31.363-2.12.61-4.227 1.252-6.334 1.907-11.92 3.63-11.92 3.63-17.918 2.742-2.5-2-2.5-2-4-4 2.01-8.564 5.847-15.713 10.187-23.312l1.924-3.436c3.876-6.877 7.915-13.63 12.09-20.328a303.293 303.293 0 0 0 5.111-8.674c6.861-11.813 14.492-23.114 22.422-34.23a347.272 347.272 0 0 0 8.141-11.895c8.837-13.366 18.666-26.077 28.79-38.486 1.25-1.536 2.49-3.08 3.73-4.623 4.534-5.622 9.274-10.99 14.171-16.297 2.24-2.503 4.308-5.07 6.371-7.719 4.514-5.587 9.5-10.66 14.563-15.75l2.41-2.437c4.489-4.467 9.079-8.535 14.162-12.314 1.793-1.394 3.363-2.856 4.928-4.499l-6.188 4.75-1.751 1.344c-2.586 1.986-5.152 3.98-7.674 6.047C488 276 488 276 485.676 277.3c-3.932 2.497-7.128 5.677-10.489 8.887l-2.161 2.044a480.588 480.588 0 0 0-12.37 12.147c-1.673 1.638-3.414 3.13-5.219 4.621-3.14 2.633-5.708 5.545-8.355 8.664-2.583 2.898-5.32 5.61-8.082 8.336-4.55 4.506-8.866 9.106-13 14-.9 1.049-1.801 2.097-2.703 3.145a3114.328 3114.328 0 0 0-7.76 9.056c-.99 1.16-1.983 2.32-2.977 3.477-15.386 17.934-29.508 36.81-43.047 56.168-1.53 2.178-3.072 4.347-4.618 6.513-5.508 7.726-10.843 15.518-15.922 23.532a535.061 535.061 0 0 1-5.41 8.359l-1.372 2.078C341 450 341 450 339 452c-3.112.338-5.233.38-8.063-1.023-2.813-2.87-3.309-6.095-4.062-9.914l-.499-2.42C318.693 399.54 322.932 360.049 337 323l.77-2.081C349.317 289.72 369.66 263.3 393 240l1.527-1.633C400.38 232.176 407.223 227.121 414 222l1.684-1.278c64.726-48.753 148.44-63.768 227.014-47.202ZM278.375 414.063c3.784 1.351 4.645 3.496 6.625 6.937 1.001 3.336 1.001 3.336 1.71 6.945l.837 4.016c.415 2.072.824 4.145 1.23 6.219 2.594 13.117 6.34 25.806 17.387 34.234 1.145.75 2.3 1.487 3.461 2.211l1.858 1.185c3.675 2.272 7.19 3.94 11.33 5.252 5.096 1.635 8.155 4.213 11.972 7.899 3.424 3.152 7.277 5.581 11.215 8.039-.563 3.441-1.524 4.813-4.246 6.953-1.001.8-1.001.8-2.023 1.614l-2.168 1.683-2.21 1.753A1434.364 1434.364 0 0 1 329 514c-1.773 1.414-3.544 2.83-5.313 4.25l-2.355 1.879c-3.432 2.754-6.832 5.546-10.234 8.336-5.648 4.627-11.323 9.221-16.991 13.824a9983.271 9983.271 0 0 0-6.337 5.152c-6.347 5.163-12.7 10.315-19.098 15.414a1420.259 1420.259 0 0 0-8.351 6.77c-5.713 4.657-11.445 9.281-17.259 13.813-6.096 4.755-12.069 9.653-18.027 14.581-3.655 3.024-7.32 6.03-11.035 8.981-4.522 3.594-8.98 7.263-13.438 10.938l-2.231 1.837c-3.218 2.65-6.432 5.305-9.624 7.987-7.75 6.467-13.918 11.34-24.304 11.385l-3.454.022-3.776.008-3.988.02c-4.36.02-8.72.031-13.08.041l-4.509.013c-7.061.019-14.122.033-21.184.041-8.142.01-16.285.036-24.428.077-6.3.03-12.6.045-18.9.048-3.76.002-7.52.011-11.28.036-3.538.024-7.076.028-10.615.018-1.91-.001-3.821.018-5.732.038-6.71-.04-11.05-.402-16.457-4.509-2.76-3.185-3.87-5.219-4.563-9.375C24.401 612.973 37.672 605.353 47 598c6.247-4.95 12.418-9.986 18.563-15.063 4.953-4.091 9.923-8.141 15.023-12.05 4.116-3.217 8.146-6.54 12.193-9.844 4.43-3.608 8.9-7.158 13.409-10.668 5.176-4.035 10.215-8.205 15.206-12.466a425.25 425.25 0 0 1 11.829-9.694c3.53-2.816 7.027-5.673 10.527-8.528a885.219 885.219 0 0 1 15.438-12.312c5.086-3.964 10.028-8.065 14.927-12.257 4.365-3.718 8.847-7.263 13.373-10.782 4.74-3.698 9.384-7.501 14.012-11.336 5.24-4.34 10.512-8.626 15.875-12.813 5.948-4.642 11.806-9.383 17.625-14.187 38.846-32.057 38.846-32.057 43.375-31.938Z"/><path fill="#E55342" d="M683 875c7.852 9.378 5.54 25.082 4.574 36.633-1.362 13.896-3.486 27.674-5.687 41.457l-.456 2.864c-3.712 23.264-7.887 46.443-12.079 69.624-5.411 29.894-5.411 29.894-10.282 59.879l-.605 3.923c-1.172 7.86-1.969 15.689-2.465 23.62l3-2h3c.813 2.625.813 2.625 1 6-2.063 3.375-2.063 3.375-5 6-3.125.625-3.125.625-6 0-2.24-2.25-2.95-3.603-3.35-6.773.359-18.565 3.9-36.976 7.057-55.239l.782-4.54a6171.425 6171.425 0 0 1 5.984-34.022l.444-2.493a21995.6 21995.6 0 0 1 4.054-22.69c9.503-49.532 9.503-49.532 13.279-99.68l.029-3.906-.013-3.653-.007-3.287c-.064-2.937-.064-2.937-2.259-5.717-46.217 26.575-65.14 122.521-79.59 171.323l-.887 2.962-.752 2.559C596 1060 596 1060 594 1063c-2.438-.375-2.438-.375-5-1-1.707-3.413-.32-7.192.293-10.844l.906-5.61.49-2.99c2.538-15.546 4.905-31.092 6.686-46.744l.24-2.093c.48-4.238.942-8.477 1.385-12.719l.26-2.317c.62-5.723.912-11.373.943-17.128l.017-2.59c.01-1.79.016-3.58.02-5.37.01-2.72.041-5.44.072-8.161.007-1.752.012-3.503.016-5.254l.038-2.431c-.022-5.55-1.164-9.65-3.366-14.749-7.668 1.812-10.592 7.454-14.595 13.717-35.248 57.277-57.148 125.314-76.182 189.537l-.637 2.146a994.155 994.155 0 0 0-2.835 9.77l-.981 3.389-.825 2.915c-.973 2.602-2.17 4.406-3.945 6.526-4.875-.875-4.875-.875-6-2-.474-8.037.963-15.619 2.45-23.492l.396-2.141c3.404-18.36 7.389-36.597 11.386-54.835.77-3.525 1.535-7.052 2.3-10.578a4576.12 4576.12 0 0 1 14.808-65.8 7730.116 7730.116 0 0 0 6.53-28.4l2.59-11.329 2.666-11.654a35931.4 35931.4 0 0 0 3.08-13.47l1.355-5.926.772-3.379c.961-4.319 1.794-8.32 1.8-12.754l.004-2.644-.012-2.723.012-2.746-.004-2.637-.004-2.395c-.05-2.29-.05-2.29-1.129-5.097-24.694 8.603-39.74 33.017-50.902 55.395-5.059 10.693-11.137 25.434-7.227 37.234 3.146 6.92 6.826 10.746 13.922 13.426 3.36.99 6.616 1.575 10.082 2.07l3.492.508L512 996l1 6c-11.382.605-21.312-.593-30.164-8.246-6.705-6.405-8.987-12.546-9.336-21.692.59-24.805 15.81-49.69 31.5-68.062l2.414-2.887C515.368 891.861 524.443 884.34 536 880c4.318 0 6.194.216 9.313 3.25 6.473 10.55 4.129 22.853 1.617 34.36l-.668 3.127c-2.545 11.796-5.309 23.542-8.07 35.29a5674.064 5674.064 0 0 0-18.539 81.569 8540.73 8540.73 0 0 1-1.577 7.163 4853.29 4853.29 0 0 0-2.482 11.317c-.3 1.377-.603 2.754-.906 4.13-1.68 7.63-3.15 15.237-4.257 22.97-.77 5.04-1.818 9.984-3.431 14.824h2l.383-3.59c4.353-34.398 24.15-71.957 37.617-103.41l1.067-2.493c4.524-10.489 9.454-20.78 14.514-31.019.642-1.3 1.282-2.603 1.92-3.906 4.23-8.631 8.948-16.714 14.499-24.582l2.05-2.907c4.236-5.872 8.78-10.223 15.95-12.093 3.962 1.034 4.854 2.791 7.188 6.125 4.435 8.616 4.17 17.988 4.125 27.438l-.001 2.08c-.022 13.661-1.187 27.129-2.656 40.7-.525 4.935-.798 9.7-.656 14.657v3l.672-2.41C616.99 967.246 633.507 926.077 656 893l1.18-1.742C672.697 868.659 672.697 868.659 683 875Z"/><path fill="#E55443" d="M1088 971c2 2 2 2 2.375 5.125-1.128 11.658-11.238 20.044-19.375 27.625-3.458 3.384-4.637 6.63-6 11.25l-.559 1.77c-.643 3.252-.612 6.418-.629 9.73l-.042 3.969c.211 3.24.38 4.925 2.23 7.531 3.748 2.499 6.664 2.86 11 2 6.424-3.34 11.706-8.193 16.75-13.313l2.062-2.064c5.562-5.7 10.424-11.809 15.027-18.302l1.49-2.067 1.277-1.834c1.722-1.754 2.978-2.122 5.394-2.42l1 1c-.149 6.528-2.695 9.858-6.875 14.688l-1.78 2.11A682.438 682.438 0 0 1 1106 1024c-.489.575-.978 1.15-1.481 1.744-8.367 9.842-18.5 20.957-31.894 22.694-4.792-.579-7.937-2.374-11.625-5.438-1.938-2.688-1.938-2.688-3-5l-1-2c-.24-3.015-.185-6.04-.188-9.063l-.037-2.49c-.013-5.728.753-10.914 2.225-16.447-12.047 6.239-22.967 14.398-33.813 22.5l-2.047 1.528-1.91 1.44-1.675 1.264c-1.62 1.267-1.62 1.267-3.132 2.926C1015 1039 1015 1039 1013 1039a599.508 599.508 0 0 0-4.832 21.992l-.48 2.4-.49 2.449c-18.441 92.131-18.441 92.131-43.823 110.972-4.428 2.572-7.315 3.085-12.375 2.187-4.768-2.044-7.23-4.888-9.375-9.563-6.936-17.399-1.371-38.499 5.4-55.188 10.649-24.573 26.488-45.128 44.975-64.249l1.662-1.729c6.542-6.78 6.542-6.78 9.338-9.271h2c.507-3.374 1.004-6.75 1.5-10.125l.434-2.883c.686-4.704 1.259-9.222 1.066-13.992-3.93 3.691-7.137 7.685-10.352 12.012C996 1026 996 1026 993 1028c-6.148.549-6.148.549-8.691-1.09-3.079-4.494-1.861-11.632-1.309-16.91 2.216-11.435 7.974-26.469 17.332-33.836 6.685-4.148 6.685-4.148 11.48-4.226 5.622 1.873 5.622 1.873 8.188 4.062.813 3.188.813 3.188 1 6-3.049-.508-6.014-1.004-9-1.813-4.324-.27-5.756.975-9 3.813-7.62 8.692-13.576 23.331-13 35l1 2c6.172-8.273 12.188-16.602 17.826-25.25 1.602-2.449 3.098-4.674 5.174-6.75h3c1.568 3.137.91 6.396.688 9.813l-.14 2.308c-.382 5.683-1.115 11.246-2.146 16.852-.494 3.72-.463 7.275-.402 11.027l2.281-1.8c8.659-6.78 17.586-13.079 26.719-19.2l2.01-1.36a711.611 711.611 0 0 1 5.74-3.827l1.734-1.173c3.236-2.107 4.51-2.64 8.516-2.64l1.434-3.367c8.51-19.37 8.51-19.37 17.668-24.903 2.627-1.01 4.25-.566 6.898.27Z"/><path fill="#E55342" d="m354.84 718.696 2.43.003 2.52-.013c1.77-.006 3.54-.006 5.31-.002 2.664.003 5.327-.02 7.992-.045 13.513-.051 27.151.196 37.584 9.923 7.1 7.612 9.43 16.16 9.324 26.438-.716 9.595-3.813 16.193-10.75 22.812-4.038 3.376-8.176 4.955-13.25 6.188.547 3.668 1.41 6.003 3.625 8.969l1.63 2.213L403 797.5l3.543 4.812 1.771 2.395a485.67 485.67 0 0 1 6.999 9.793l2.175 3.094C419 820 419 820 419 822h2l-1 2a115.41 115.41 0 0 1-4.187-.188l-2.356-.105c-6.26-1.802-9.982-9.001-13.582-14.082l-1.749-2.376c-2.792-3.818-5.374-7.574-7.575-11.765-3.34-6.077-3.34-6.077-8.551-10.484-7.732-1.786-16.204-1.28-24 0-2.057 2.057-1.257 6.356-1.316 9.191l-.063 2.485c-.066 2.629-.125 5.258-.183 7.886l-.131 5.334c-.108 4.368-.209 8.736-.307 13.104-6.152.098-6.152.098-8 0-1.95-1.95-1.134-4.916-1.147-7.512l.002-2.841-.01-2.976c-.01-3.264-.012-6.528-.013-9.792l-.01-6.775c-.006-4.74-.008-9.48-.007-14.221 0-6.088-.014-12.176-.031-18.264-.011-4.666-.013-9.332-.013-13.998 0-2.245-.005-4.49-.013-6.735-.01-3.135-.007-6.269 0-9.403-.007-.936-.012-1.872-.018-2.836l.013-2.579-.002-2.247c.636-4.653 4.243-4.075 8.088-4.125ZM728 984c3 1.688 3 1.688 5 4 .813 3.25.813 3.25 1 6l-3 1-2.813-1.938c-3.631-2.35-4.969-2.923-9.187-2.062-8.925 4.545-13.048 16.613-16 25.563-1.07 3.51-.9 5.88 0 9.437 6.214-6.528 11.653-13.363 16.837-20.729l1.464-2.025 1.286-1.822c1.719-1.732 3.037-2.039 5.413-2.424 1.63 5.142 2.4 9.954 2.875 15.313.752 7.344 1.678 15.24 7.125 20.687 4.41.086 7.18-.738 10.375-3.688 7.205-7.885 12.539-17.776 17.434-27.203C767 1002 767 1002 769 1000c2.125.375 2.125.375 4 1l.953-3.43 1.297-4.445.621-2.262c1.643-5.526 1.643-5.526 4.3-7.37L782 983c2.169 3.253 2.138 4.083 1.492 7.762-.853 3.881-1.852 7.725-2.87 11.566-.735 2.702-.735 2.702-.622 5.672l1.172-1.645 1.578-2.168 1.547-2.144c2.561-3.072 4.854-4.754 8.64-6.043 3.063 0 3.063 0 5.688 1.938 5.173 6.67 7.483 14.026 10.031 21.988 1.413 3.233 2.167 4.572 5.344 6.074 2.834-.135 4.417-.55 6.668-2.285 4.597-5.377 8.223-11.192 11.692-17.342 3.017-5.127 3.017-5.127 6.257-6.408C841 1000 841 1000 844 1001l.5-2.438c2.59-6.152 7.046-10.91 12.563-14.625 3.605-1.15 6.17-1.408 9.937-.937 3.787 2.04 6.951 4.144 9 8-.313 2.25-.313 2.25-1 4-3.033-.62-5.234-1.66-7.875-3.25-3.232-1.652-3.707-1.87-7.375-.813-5.017 3.763-7.726 8.507-10.313 14.125l-.918 1.973c-2.617 5.813-4.295 11.707-5.519 17.965 2.245.231 2.245.231 4.102-2.02 5.09-5.633 9.778-11.313 14.109-17.57 1.761-2.373 3.649-4.378 5.789-6.41 3 1 3 1 4 3 .322 2.833.608 5.662.875 8.5.824 8.066 1.778 16.453 6.125 23.5 3.324 1.178 3.324 1.178 7 1 9.69-6.593 15.363-17.923 20.55-28.12l1.188-2.267 1.033-2.038C909 1001 909 1001 911.016 1000.212 913 1000 913 1000 915 1001l.953-3.43 1.297-4.445.621-2.262c1.643-5.526 1.643-5.526 4.3-7.37L924 983c3.067 6.133.23 13.932-1.344 20.145-.768 2.854-.768 2.854-.656 5.855l.918-1.61c3.211-5.414 5.933-9.275 12.082-11.452 3 .062 3 .062 5.625 2 4.96 6.395 7.42 13.63 10.129 21.207 1.165 2.67 1.954 4.11 4.246 5.855 2.825.92 2.825.92 6 0 6.002-4.634 9.723-12.158 13.448-18.627l1.22-2.057 1.071-1.86c1.632-1.884 2.814-2.171 5.261-2.456l2 1c-.194 8.075-.194 8.075-3.125 11.438-.949.845-1.898 1.69-2.875 2.562a166.585 166.585 0 0 0-3.375 4.875c-3.354 4.91-7.18 10.402-12.625 13.125-4.826.676-8.086.552-12.313-2-7.177-7.118-9.584-18.692-12.687-28-4.515 2.242-6.332 4.619-8.75 9l-1.007 1.819c-5.126 9.431-9.825 19.213-13.868 29.158-1.375 3.023-1.375 3.023-3.563 4.46L908 1048l-3-2c.242-9.81 2.914-18.94 5.557-28.317.485-1.554.485-1.554.443-2.683-3.641 4.582-7.143 9.18-10.375 14.063-4.344 6.205-9.386 12.768-17.188 14.312-4.518.095-7.356-1.542-10.718-4.457-5.841-6.518-7.023-15.605-8.719-23.918-4.314 4.185-8.005 8.665-11.719 13.379-5.497 6.316-5.497 6.316-9.843 7.059-3.093-.556-4.273-1.132-6.438-3.438-.296-2.87-.38-5.338-.25-8.188l.055-2.271c.047-1.848.119-3.694.195-5.541l-1.469 1.941c-10.87 14.026-10.87 14.026-16.789 15.696-4.229.322-7.152-.475-10.554-3.012-3.952-3.878-5.453-8.473-7.188-13.625-.674-1.818-1.36-3.63-2.063-5.438l-.91-2.433c-1.064-2.206-2.2-3.52-4.027-5.129-8.649 7.903-13.327 20.49-18.14 30.992-1.86 4.052-3.849 8.03-5.86 12.008-4 0-4 0-6-1 .514-8.101 2.227-15.68 4.16-23.535.88-3.033.88-3.033.84-4.465-3.362 3.111-5.82 6.567-8.313 10.375-4.254 6.318-8.558 11.49-15.687 14.625-4.094.54-7.076.33-10.625-1.75-5.867-4.598-8.256-13.125-9.375-20.25a194.485 194.485 0 0 1 0-7c-4.378 4.306-8.515 8.8-12.627 13.36-5.185 5.68-5.185 5.68-8.373 7.64-3.05-.076-4.745-.852-7.375-2.375-2.761-4.46-1.65-8.649-.625-13.625 3.313-12.343 8.106-27.626 19.75-34.438 4.548-2.054 8.5-1.964 13.25-.562ZM234 719c3.295 6.393 6.27 12.823 8.938 19.5.784 1.939 1.57 3.878 2.355 5.816l1.298 3.212a3765.528 3765.528 0 0 0 7.267 17.741l1.784 4.339a2705.99 2705.99 0 0 0 10.077 24.22l.906 2.148a3190.21 3190.21 0 0 0 4.288 10.114l1.54 3.64 1.349 3.17c1.29 3.338 2.264 6.647 3.198 10.1-7.547.371-7.547.371-9.486-1.217-1.775-2.09-2.705-4.076-3.776-6.6l-1.2-2.814-1.226-2.932c-.415-.97-.83-1.942-1.26-2.943C257 799.281 257 799.281 257 797c-7.209.067-14.417.157-21.625.262-2.453.034-4.906.062-7.36.084-3.522.034-7.044.086-10.566.142l-3.333.02-3.094.06-2.725.033c-2.755.479-3.603 1.218-5.297 3.399-1.222 2.394-1.222 2.394-2.262 5.105l-1.2 2.979c-.405 1.024-.81 2.048-1.226 3.104-.415 1.035-.83 2.071-1.26 3.138A1568.988 1568.988 0 0 0 194 823h-10c.732-2.927 1.458-5.265 2.637-7.984l.99-2.312 1.06-2.454c2.677-6.261 5.226-12.541 7.563-18.938 1.642-4.485 3.393-8.777 5.648-12.99 1.431-3.016 2.542-6.13 3.68-9.263 3.405-9.215 7.185-18.262 11.028-27.3 1.163-2.742 2.316-5.488 3.468-8.234.74-1.747 1.481-3.493 2.223-5.24l1.038-2.483c2.745-6.41 3.819-6.95 10.665-6.802Zm773 0c4.766 9.115 8.766 18.415 12.625 27.938l1.837 4.497a9203.77 9203.77 0 0 1 3.732 9.145c2.68 6.567 5.4 13.118 8.119 19.67l4.317 10.44c.908 2.194 1.817 4.388 2.728 6.58 1.26 3.034 2.514 6.07 3.767 9.105l1.11 2.665c1.896 4.605 3.505 9.14 4.765 13.96-7.547.371-7.547.371-9.486-1.217-1.775-2.09-2.705-4.076-3.776-6.6l-1.2-2.814-1.226-2.932c-.415-.97-.83-1.942-1.26-2.943C1030 799.281 1030 799.281 1030 797c-7.209.067-14.417.157-21.625.262-2.453.034-4.906.062-7.36.084-3.522.034-7.044.086-10.566.142l-3.333.02-3.094.06-2.725.033c-2.755.479-3.603 1.218-5.297 3.399-1.222 2.394-1.222 2.394-2.262 5.105l-1.2 2.979c-.405 1.024-.81 2.048-1.226 3.104-.415 1.035-.83 2.071-1.26 3.138A1568.988 1568.988 0 0 0 967 823h-9l-1-2a157.53 157.53 0 0 1 3.418-8.582l1.116-2.645a2483.23 2483.23 0 0 1 3.654-8.586c.836-1.976 1.673-3.953 2.508-5.93 1.666-3.942 3.335-7.883 5.006-11.823 2.93-6.92 5.809-13.861 8.673-20.809l1.405-3.393a2794.622 2794.622 0 0 0 6.7-16.325c1.11-2.729 2.224-5.455 3.34-8.182.532-1.306 1.062-2.612 1.59-3.92.724-1.797 1.458-3.59 2.192-5.383l1.26-3.107c2.058-4.187 4.863-3.408 9.138-3.315Zm-505.137-.626c3.137.626 3.137.626 5.74 3.553a158.378 158.378 0 0 1 2.592 4.096l1.424 2.209a683.192 683.192 0 0 1 4.506 7.143c1.035 1.622 2.072 3.242 3.111 4.86 2.03 3.167 4.05 6.34 6.061 9.517 3.178 5.01 6.45 9.953 9.765 14.873l2.536 3.79 1.164 1.727c.936 1.405 1.856 2.82 2.769 4.24l1.59 2.454 1.447 2.26c1.463 2.164 1.463 2.164 4.432 3.904 4.61-6.19 8.994-12.448 13.09-18.988 2.231-3.519 4.532-6.986 6.847-10.45l1.296-1.937 2.555-3.814c1.783-2.664 3.56-5.331 5.337-7.999l1.926-2.882c1.38-2.074 2.75-4.152 4.117-6.235l2.144-3.258 1.926-2.94c1.487-2.108 2.751-3.893 4.762-5.497 3.187-.188 3.187-.188 6 0 1.147 2.294 1.123 3.563 1.12 6.113l.004 2.609-.01 2.868v3.016c0 3.3-.009 6.601-.016 9.902l-.005 6.852c-.003 6.02-.013 12.04-.024 18.06-.01 6.14-.015 12.28-.02 18.42-.01 12.053-.028 24.107-.049 36.16-6.152.098-6.152.098-8 0-1.743-1.743-1.12-4.006-1.124-6.328l.01-2.313v-2.424c0-2.657.009-5.313.016-7.97l.005-5.511c.003-4.845.013-9.69.024-14.535.01-4.94.015-9.88.02-14.82.01-9.7.028-19.4.049-29.099-3.488 3.379-6.166 6.997-8.816 11.047l-1.384 2.087c-1.459 2.203-2.91 4.41-4.363 6.616-1.895 2.871-3.792 5.74-5.69 8.61l-1.422 2.146a1258.967 1258.967 0 0 1-10.415 15.447l-1.405 2.06c-1.718 2.498-3.356 4.838-5.505 6.987-3.414.455-5.327.417-8.283-1.413-3.852-3.668-6.502-7.901-9.373-12.357l-1.893-2.892a2750.31 2750.31 0 0 1-5.951-9.15c-1.982-3.041-3.966-6.08-5.95-9.12a2488.391 2488.391 0 0 1-3.69-5.669c-3.178-4.887-6.43-9.685-9.86-14.399-.93 18.53-1.124 37.012-1.063 55.562A12543.451 12543.451 0 0 0 506 823c-1.48.027-2.958.046-4.438.062l-2.496.036C497 823 497 823 496 822a264.89 264.89 0 0 1-.161-9.246l-.015-2.941a9367.61 9367.61 0 0 1-.064-30.448c-.006-6.019-.03-12.037-.058-18.055-.019-4.616-.024-9.23-.026-13.846-.003-2.22-.01-4.439-.024-6.658-.017-3.1-.015-6.2-.008-9.302l-.028-2.796c.005-.844.01-1.688.017-2.558l-.005-2.222c.714-3.7 2.716-4.784 6.235-5.554Z"/><path fill="#00803B" d="m76.339 888.622 3.223-.023 3.522.02 3.756-.014c3.438-.01 6.875-.006 10.313.003 3.708.007 7.416-.004 11.125-.012 7.262-.013 14.525-.01 21.788-.002 5.901.007 11.802.008 17.703.005l2.543-.002 5.116-.003c15.991-.008 31.983.002 47.975.018 13.73.013 27.46.01 41.19-.003a30162.717 30162.717 0 0 1 52.906-.01l2.532.001c5.897.003 11.794-.002 17.69-.009 7.182-.008 14.364-.006 21.546.01 3.666.008 7.332.01 10.998.001 3.968-.01 7.936.002 11.905.017l3.536-.02 3.207.023 2.777.002c2.77.45 3.665 1.136 5.31 3.376.313 2.562.313 2.562 0 5-2.555 2.555-3.47 2.25-7.017 2.252l-3.236.015-3.584-.013-3.786.01c-3.478.008-6.957.004-10.435-.003-3.747-.004-7.495.003-11.242.008-7.345.01-14.69.007-22.036.002-5.968-.005-11.936-.006-17.905-.003h-2.57l-5.168.003c-16.17.005-32.341-.001-48.512-.012-13.885-.009-27.77-.007-41.655.002a46229.638 46229.638 0 0 1-53.48.007l-2.56-.001c-5.962-.002-11.925 0-17.888.006-7.264.005-14.528.004-21.792-.007-3.71-.005-7.418-.007-11.126 0-4.015.006-8.03-.002-12.044-.012l-3.577.013-3.245-.015-2.81-.001C69 899 69 899 66 897c-.5-2.438-.5-2.438 0-5 3.492-2.6 6.024-3.375 10.339-3.378Z"/><path fill="#FDFDFD" d="M1000 1051h3a277.374 277.374 0 0 1-5.188 29.938l-.458 2.01c-2.94 12.838-6.366 25.499-10.354 38.052l-.745 2.363C981.511 1138.196 975.76 1154.46 965 1166l-1.555 1.86c-2.375 2.682-3.961 4.041-7.508 4.765-3.662-.78-5.333-1.948-7.937-4.625-6.858-13.03-2.007-29.77 1.938-43 5.475-15.715 14.029-30.766 24.062-44l2.285-3.14c7.107-9.646 15.25-18.395 23.715-26.86Z"/><path fill="#E55342" d="M738 724c8.438 6.754 11.373 14.556 13 25-7.75.125-7.75.125-10-1-.676-1.82-.676-1.82-1.313-4.125-1.77-5.486-3.73-10.106-8.835-13.16-10.945-5.072-20.485-4.476-31.872-.98-4.378 1.859-7.216 4.037-9.73 8.077-1.993 5.083-3.027 9.077-.938 14.25 4.776 8.096 14.23 10.693 22.814 12.954l3.624.922C742.643 773.5 742.643 773.5 749 784l1.875 3.063c2.421 6.475 2.231 14.364.21 20.89-3.854 8.306-9.33 12.063-17.718 15.25-11.283 3.798-26.894 3.606-37.887-.867-9.294-5.006-14.79-11.192-18.843-20.836-.736-2.889-.48-4.663.363-7.5 1-1 1-1 4.063-1.063L684 793l.848 2.414c3.346 8.846 6.684 13.551 15.172 17.707 5.462 2.365 10.53 2.508 16.418 2.442l2.947.072c7.139-.015 12.675-1.596 18.615-5.635 3.388-3.63 4.246-7.086 4.5-12-.235-4.84-1.217-8.373-4.5-12-7.518-6.333-17.497-8.606-26.762-11.162-23.19-6.423-23.19-6.423-31.238-16.838-3.422-6.732-3.269-15.019-1.008-22.113 3.88-7.923 9.499-12.478 17.5-15.977 13.062-4.307 29.824-3.426 41.508 4.09Z"/><path fill="#FDFDFD" d="m369.063 727.678 2.21.006c2.191.003 4.38-.02 6.57-.045 17.768-.086 17.768-.086 24.813 5.447l1.844 2.289 1.906 2.273c4.832 7.13 4.268 15.085 3.594 23.352-1.71 6.033-6.61 9.978-11.84 13.098-9.76 4.077-23.392 2.06-33.785 1.464l-2.157-.118c-5.098-.324-5.098-.324-6.218-1.444a58.796 58.796 0 0 1-.145-4.12l-.02-2.65-.003-2.882-.01-2.941c-.005-2.057-.007-4.114-.007-6.171-.002-3.157-.02-6.312-.04-9.468-.003-1.995-.005-3.989-.005-5.983l-.022-2.876.01-2.659-.005-2.346c.796-6.133 8.663-4.208 13.31-4.226Z"/><path fill="#E55342" d="M1166.688 874.5c2.312.5 2.312.5 4.312 3.5 3.81 21.574-13.424 48.925-24.66 66.07-2.288 3.645-3.553 7.12-4.652 11.305l-.608 2.31A701.18 701.18 0 0 0 1139 966l-.807 3.252c-9.026 36.654-16.831 73.667-23.88 110.748l-.505 2.65c-.465 2.449-.925 4.9-1.382 7.35l-.4 2.12c-.36 1.957-.693 3.918-1.026 5.88l-.38 2.168c-.778 4.674-.778 4.674 1.38 8.832-.314 3.976-1.832 6.702-4 10-4.875-.875-4.875-.875-6-2-.638-7.325.524-14.388 1.875-21.563l.662-3.59A1514.69 1514.69 0 0 1 1107 1079l.493-2.53c6.559-33.589 14.015-66.957 21.768-100.288.697-3.002 1.39-6.005 2.081-9.01 4.345-18.88 8.75-37.703 14.658-56.172l.768-2.413c10.445-32.324 10.445-32.324 19.92-34.087Z"/><path fill="#00803B" d="m577.904 454.753 2.346.004 2.66-.01 2.875.023h2.944c2.055.004 4.11.012 6.166.024 3.158.018 6.316.02 9.474.02l5.979.018 2.882.003 2.65.02 2.343.011C620 455 620 455 621 456a62.59 62.59 0 0 1 .114 4.244v2.73l-.016 2.967-.005 3.023c-.005 3.2-.018 6.399-.03 9.599-.006 2.163-.01 4.326-.014 6.49-.011 5.316-.028 10.631-.049 15.947-6.372.05-12.744.086-19.116.11-2.17.01-4.338.024-6.507.04-3.113.025-6.225.036-9.338.045l-2.951.032h-2.73l-2.41.014C576 501 576 501 574 499c-.254-1.822-.254-1.822-.259-4.05l-.019-2.529.012-2.733-.005-2.803c-.002-1.956.002-3.913.01-5.87.011-3.003 0-6.005-.012-9.007 0-1.899.003-3.797.007-5.695l-.012-2.734.02-2.528c0-.736.002-1.472.004-2.23.378-2.712 1.46-3.718 4.158-4.068Zm2.233-68.883 2.66-.009 2.89.006 2.948-.003c2.062 0 4.123.001 6.184.006 3.167.005 6.334 0 9.501-.007 1.998 0 3.995.002 5.992.004l2.892-.006 2.66.01 2.352.002C620 386 620 386 621 387a62.59 62.59 0 0 1 .114 4.244v2.73l-.016 2.967-.005 3.023c-.005 3.2-.018 6.399-.03 9.598-.006 2.164-.01 4.327-.014 6.49-.011 5.317-.028 10.632-.049 15.948-6.372.05-12.744.086-19.116.11-2.17.01-4.338.024-6.507.04-3.113.025-6.225.036-9.338.045l-2.951.032h-2.73l-2.41.014C576 432 576 432 574 430c-.21-1.866-.21-1.866-.151-4.158l.051-2.599.088-2.81.069-2.876c.05-2.008.105-4.016.164-6.025.091-3.085.166-6.17.238-9.257.05-1.947.102-3.894.154-5.841l.07-2.816.08-2.589.065-2.29c.34-3.442 2.317-2.865 5.309-2.868Zm65.729 68.883 2.292.004 2.599-.01 2.81.023h2.876c2.008.004 4.016.012 6.025.024 3.085.018 6.17.02 9.257.02l5.841.018 2.816.003 2.589.02 2.29.011C687 455 687 455 688 456a62.59 62.59 0 0 1 .114 4.244v2.73l-.016 2.967-.005 3.023c-.005 3.2-.018 6.399-.03 9.599-.006 2.163-.01 4.326-.014 6.49-.011 5.316-.028 10.631-.049 15.947-6.39.025-12.78.043-19.171.055-2.176.005-4.352.012-6.527.02-3.12.013-6.24.018-9.36.023l-2.968.015h-2.73l-2.415.007C643 501 643 501 642 500a56.273 56.273 0 0 1-.145-4.03l-.02-2.588-.003-2.816-.01-2.873c-.005-2.01-.007-4.02-.007-6.03-.002-3.084-.02-6.167-.04-9.25-.003-1.95-.005-3.898-.005-5.847l-.022-2.809.01-2.599-.005-2.292c.359-2.71 1.403-3.754 4.113-4.113Zm0-69 2.292.004 2.599-.01 2.81.023h2.876c2.008.004 4.016.012 6.025.024 3.085.018 6.17.02 9.257.02l5.841.018 2.816.003 2.589.02 2.29.011C687 386 687 386 688 387a62.59 62.59 0 0 1 .114 4.244v2.73l-.016 2.967-.005 3.023c-.005 3.2-.018 6.399-.03 9.599-.006 2.163-.01 4.326-.014 6.49-.011 5.316-.028 10.631-.049 15.947-6.23.025-12.46.043-18.689.055-2.12.005-4.24.012-6.361.02-3.043.013-6.087.018-9.13.023l-2.885.015h-2.669l-2.355.007C644 432 644 432 642 431c-.05-6.087-.086-12.174-.11-18.262-.01-2.072-.024-4.144-.04-6.216a1657.7 1657.7 0 0 1-.045-8.92l-.032-2.82v-2.608l-.014-2.301c.35-2.716 1.392-3.76 4.107-4.12Z"/><path fill="#E55342" d="M72.298 718.66h3.275l3.532.047 3.62.013c3.82.017 7.641.054 11.463.092 2.587.016 5.175.03 7.763.042 6.35.033 12.7.083 19.049.146 1 2 1 2 1 9l-48 1-1 39c4.747.09 4.747.09 9.59.184 3.051.061 6.103.125 9.154.188 2.127.044 4.254.085 6.382.125 3.05.058 6.1.122 9.151.187l2.901.05 2.67.06 2.361.048C117 769 117 769 118 770c.04 2.333.042 4.667 0 7l-3.931.076c-4.796.094-9.59.194-14.386.296-2.078.044-4.157.085-6.236.125-2.981.058-5.962.122-8.943.187l-2.835.05-2.608.06-2.308.048c-1.78-.028-1.78-.028-2.753 1.158a61.004 61.004 0 0 0-.205 4.153l-.06 2.669-.051 2.9-.063 2.956a4246.15 4246.15 0 0 0-.183 9.384l-.131 6.346A7371.27 7371.27 0 0 0 73 823c-6.152.098-6.152.098-8 0-2.163-2.163-1.158-7.241-1.161-10.246l-.015-2.941a9367.61 9367.61 0 0 1-.064-30.448c-.006-6.019-.03-12.037-.058-18.055-.019-4.616-.024-9.23-.026-13.846-.003-2.22-.01-4.439-.024-6.658-.017-3.1-.015-6.2-.008-9.302l-.028-2.796c.005-.844.01-1.688.017-2.558l-.005-2.222c.939-4.865 4.29-5.3 8.67-5.269ZM1108 719c3.25-.313 3.25-.313 7 0 3.18 3.392 5.459 7.257 7.813 11.25l2.351 3.96 1.333 2.254c3.05 5.145 6.12 10.278 9.19 15.411l1.908 3.204c5.356 10.767 5.356 10.767 13.405 18.921l1.984-3.453a1752.533 1752.533 0 0 1 18.141-30.77 953.944 953.944 0 0 0 5.563-9.336l1.253-2.122a701.051 701.051 0 0 0 2.294-3.916c2.54-4.291 2.54-4.291 4.765-5.403 1.546.087 3.09.24 4.625.438l2.477.308L1194 720c-6.729 12.018-13.845 23.8-20.95 35.597-2.805 4.656-5.605 9.314-8.403 13.974a7274.226 7274.226 0 0 1-3.987 6.633l-1.808 3.01-1.6 2.66c-2.457 4.17-2.469 7.657-2.568 12.415l-.063 2.48c-.066 2.619-.125 5.237-.184 7.856l-.13 5.32c-.108 4.352-.209 8.703-.307 13.055-6.152.098-6.152.098-8 0l-1-1c.038-2.422.131-4.824.246-7.242.69-22.118-2.262-36.154-15.318-54.082-2.46-3.416-4.584-6.966-6.678-10.614a754.193 754.193 0 0 0-7.492-12.265l-1.696-2.75a542.947 542.947 0 0 0-3.342-5.35l-1.51-2.459-1.365-2.186c-1.014-2.463-.75-3.594.155-6.052Zm-280.607-.356 2.272-.007c2.48-.003 4.958.016 7.437.035 1.72.003 3.439.005 5.159.006 3.603.004 7.205.019 10.808.04 4.629.03 9.257.04 13.886.044 3.55.005 7.1.014 10.649.026 1.707.006 3.415.01 5.122.015 2.38.006 4.76.02 7.14.036l2.156.003c4.863.043 4.863.043 5.978 1.158.141 2.67.042 5.324 0 8l-3.105.076c-3.79.094-7.578.194-11.366.296-1.643.044-3.285.085-4.927.125-2.356.058-4.711.122-7.067.187l-2.238.05c-3.44-.199-3.44-.199-6.297 1.266-.125 2.89-.186 5.759-.205 8.65l-.03 2.75a3410.05 3410.05 0 0 0-.081 9.041l-.063 6.251c-.056 5.496-.105 10.992-.153 16.488-.05 5.603-.106 11.207-.161 16.81-.108 11.003-.21 22.007-.307 33.01-6.152.098-6.152.098-8 0-2.101-2.101-1.186-6.747-1.205-9.65l-.03-2.75a3410.05 3410.05 0 0 1-.081-9.041l-.063-6.251c-.056-5.496-.105-10.992-.153-16.488-.05-5.603-.106-11.207-.161-16.81A37653.68 37653.68 0 0 1 852 729l-33-1-2-6c2.693-3.834 6.114-3.412 10.393-3.356Z"/><path fill="#FDFDFD" d="M1003 734c2.53 1.265 2.666 2.138 3.724 4.719l.992 2.389 1.057 2.607 1.107 2.681a2884.22 2884.22 0 0 1 3.495 8.542 9440.42 9440.42 0 0 0 2.328 5.658 2739.93 2739.93 0 0 1 5.293 12.937 646.888 646.888 0 0 0 2.145 5.203l1.111 2.696 1.015 2.436C1026 786 1026 786 1026 789h-44l-1-2c.9-2.633 1.87-5.16 2.938-7.727l.962-2.365c1.026-2.514 2.063-5.023 3.1-7.533l2.004-4.914A1124.811 1124.811 0 0 1 1003 734Zm-773 0c2.647 1.323 2.818 2.497 3.94 5.21l1.132 2.712 1.21 2.957 1.254 3.032c.878 2.125 1.752 4.25 2.623 6.378a2314.5 2314.5 0 0 0 4.009 9.705 8093.08 8093.08 0 0 1 2.55 6.197l1.21 2.915 1.133 2.779.99 2.413c1.226 3.492 2.052 7.112 2.949 10.702h-44l-1-2c.741-2.204 1.591-4.372 2.484-6.52l.826-2.005c.587-1.424 1.178-2.847 1.771-4.269.91-2.183 1.806-4.37 2.698-6.559 1.508-3.698 3.025-7.392 4.545-11.085.94-2.285 1.879-4.571 2.817-6.857l1.812-4.404.84-2.049c1.297-3.144 2.627-6.239 4.207-9.252Zm931 159c1.191 3.573.737 4.39-.582 7.816l-1.076 2.815-1.155 2.932-1.119 2.943c-2.795 7.22-2.795 7.22-5.068 9.494v-6h2l-1-3c.96-3.031.96-3.031 2.375-6.5l1.398-3.469L1158 897l1-3 2-1ZM508 259l2 1c-1.581 1.44-3.165 2.877-4.75 4.313l-2.672 2.425A88.069 88.069 0 0 1 496 272l-2-1c1.581-1.44 3.165-2.877 4.75-4.313l2.672-2.425A88.069 88.069 0 0 1 508 259Z"/></svg>