<?xml version="1.0" encoding="UTF-8"?>
<!-- Generator: visioncortex VTracer 0.6.2 -->
<svg version="1.1" xmlns="http://www.w3.org/2000/svg" width="1280" height="1280">
<path d="M0 0 C422.4 0 844.8 0 1280 0 C1280 422.4 1280 844.8 1280 1280 C857.6 1280 435.2 1280 0 1280 C0 857.6 0 435.2 0 0 Z " fill="#FCFCFC" transform="translate(0,0)"/>
<path d="M0 0 C2.15027282 1.68911025 4.20439892 3.38290454 6.25 5.1875 C7.40405813 6.18462451 8.55901284 7.18071223 9.71484375 8.17578125 C10.27671387 8.66127441 10.83858398 9.14676758 11.41748047 9.64697266 C14.29097141 12.10375864 17.26023791 14.43730768 20.22265625 16.78515625 C23.75363356 19.60099891 27.25016546 22.45811317 30.75 25.3125 C35.89955728 29.50803149 41.07926769 33.65931564 46.3125 37.75 C51.26633335 41.62298444 56.16337605 45.55539211 61.01953125 49.55078125 C64.69033244 52.56728498 68.375164 55.56624531 72.0625 58.5625 C72.75351807 59.12404785 73.44453613 59.6855957 74.15649414 60.26416016 C78.64348534 63.9070639 83.14973671 67.52481071 87.66796875 71.12890625 C91.09203303 73.87618731 94.48408126 76.66203755 97.87890625 79.4453125 C106.65318465 86.63394728 115.45763834 93.78586949 124.328125 100.85546875 C127.8172456 103.65594713 131.28218102 106.48571822 134.75 109.3125 C139.85380506 113.47248764 144.992377 117.57972505 150.1875 121.625 C155.26829478 125.5844419 160.20606739 129.68115383 165.09960938 133.86889648 C170.18335939 138.19981293 175.42257878 142.31684042 180.6953125 146.4140625 C184.46514614 149.34663985 188.14789688 152.38325546 191.81640625 155.44140625 C196.97250266 159.12169689 201.83811118 159.68586395 208 159 C213.25545882 157.21512719 215.38334841 154.83717849 218 150 C218.5519722 146.99751004 218.53428768 144.06262405 218.49829102 141.01635742 C218.50380981 140.13260941 218.50932861 139.24886139 218.51501465 138.33833313 C218.52431344 136.42647201 218.52445739 134.51454895 218.51642036 132.60268211 C218.50376138 129.57077128 218.51510812 126.53976704 218.53245544 123.50788879 C218.55914525 118.16017298 218.56475185 112.81268 218.56335449 107.46490479 C218.56112581 98.91681132 218.57538696 90.36899462 218.61894035 81.82100868 C218.62873589 78.84473081 218.62008216 75.86889238 218.61024475 72.8926239 C218.61639355 71.05235513 218.62330681 69.2120887 218.63110352 67.37182617 C218.62338425 66.55334198 218.61566498 65.73485779 218.60771179 64.89157104 C218.66473846 58.32768299 219.71071062 51.85808613 223.90234375 46.625 C224.57394531 46.08875 225.24554687 45.5525 225.9375 45 C226.60652344 44.443125 227.27554687 43.88625 227.96484375 43.3125 C231.32196438 41.14744715 234.49222431 40.87490129 238.42684937 40.85955811 C239.30716324 40.85384796 240.18747711 40.84813782 241.09446716 40.84225464 C242.05248734 40.84113678 243.01050751 40.84001892 243.99755859 40.83886719 C245.52016548 40.83141983 245.52016548 40.83141983 247.0735321 40.82382202 C250.43184079 40.80921565 253.79010226 40.80240137 257.1484375 40.796875 C259.48247275 40.79112287 261.81650799 40.78536514 264.15054321 40.77960205 C269.04470032 40.7690968 273.93884102 40.76325082 278.83300781 40.75976562 C285.10328697 40.75427795 291.3733493 40.73024187 297.64356041 40.70179367 C302.46484003 40.68316928 307.28606736 40.67796182 312.10737991 40.67642975 C314.41903495 40.67340292 316.73068907 40.66537339 319.04230881 40.65224457 C322.27625797 40.63518652 325.50967643 40.63706381 328.74365234 40.64355469 C329.69762405 40.6343399 330.65159576 40.62512512 331.63447571 40.6156311 C337.57365502 40.65296511 342.06992176 41.32743458 346.64453125 45.5 C350.93157346 51.00576659 351.1477958 55.07775163 351.14476013 61.84880066 C351.14828698 62.76451869 351.15181382 63.68023672 351.15544754 64.62370378 C351.16615799 67.70511421 351.16981962 70.78649375 351.17358398 73.86791992 C351.17988754 76.0721042 351.18665312 78.2762872 351.19384766 80.48046875 C351.20853257 85.23422671 351.22025133 89.9879797 351.22979546 94.74175072 C351.2452297 102.25911652 351.26917939 109.77643999 351.29469299 117.29377747 C351.32982305 127.83492395 351.3629131 138.37607387 351.39282227 148.91723633 C351.39472276 149.58632966 351.39662325 150.255423 351.39858133 150.94479189 C351.4253925 160.43250482 351.44927162 169.92022289 351.47196633 179.40794645 C351.47356363 180.07552383 351.47516094 180.74310121 351.47680664 181.4309082 C351.47919684 182.43105212 351.47919684 182.43105212 351.48163532 183.45140096 C351.50842878 194.5799223 351.54295424 205.70840755 351.58346039 216.83688813 C351.61022762 224.30858244 351.62813628 231.78022925 351.63949764 239.25196207 C351.64863025 243.90456981 351.66599559 248.55711995 351.68567657 253.20969391 C351.69314369 255.36554114 351.69723263 257.52140315 351.69767189 259.67726326 C351.69875688 262.62371655 351.71202712 265.56987787 351.72825623 268.51628113 C351.72563937 269.3663954 351.72302252 270.21650968 351.72032636 271.09238499 C351.77507255 277.46997912 352.03837106 283.66281133 356.28515625 288.72265625 C357.20167969 289.49480469 358.11820313 290.26695312 359.0625 291.0625 C360.55910156 292.33867188 360.55910156 292.33867188 362.0859375 293.640625 C365.15701913 296.12713077 368.23645484 298.58990875 371.3828125 300.98046875 C374.82470795 303.63637912 378.19235366 306.37892499 381.5625 309.125 C382.24481689 309.68058594 382.92713379 310.23617188 383.63012695 310.80859375 C385.04059591 311.95756114 386.45083026 313.10681658 387.86083984 314.25634766 C391.3632696 317.11121564 394.86875424 319.96232068 398.375 322.8125 C399.0462793 323.35825684 399.71755859 323.90401367 400.40917969 324.46630859 C404.80354994 328.03605359 409.21778224 331.57983978 413.64453125 335.109375 C417.21873323 337.97822037 420.7569627 340.89064723 424.30078125 343.796875 C426.75109556 345.79684211 429.2144881 347.77821832 431.6875 349.75 C436.0192058 353.20578425 440.32540962 356.69192323 444.625 360.1875 C445.3063501 360.74131348 445.9877002 361.29512695 446.68969727 361.86572266 C450.1600692 364.68755187 453.62823267 367.51205478 457.09375 370.33984375 C463.43704894 375.51129442 469.7984649 380.65145763 476.25 385.6875 C481.63029062 389.88822754 486.89557736 394.20185747 492.125 398.58984375 C498.88239393 404.25466991 505.71654889 409.80601818 512.6953125 415.1953125 C516.22777969 417.96141393 519.69025095 420.8106358 523.15234375 423.6640625 C525.09217464 425.25530923 527.04322586 426.83295277 529.00390625 428.3984375 C529.97199219 429.17445313 530.94007813 429.95046875 531.9375 430.75 C532.81277344 431.44609375 533.68804688 432.1421875 534.58984375 432.859375 C539.56103317 437.27462914 542.82550507 441.25170486 543.25 447.9375 C543.14174603 451.36978754 542.76045083 453.98208429 541 457 C536.73157925 460.84157868 534.33809362 462.12262902 528.66369629 462.14717102 C527.53107361 462.15432632 526.39845093 462.16148163 525.23150635 462.16885376 C523.98270691 462.17154266 522.73390747 462.17423157 521.44726562 462.17700195 C520.1365509 462.18357315 518.82583618 462.19014435 517.47540283 462.19691467 C513.11903104 462.21797321 508.76265886 462.22832358 504.40625 462.23828125 C502.90512575 462.24232913 501.40400168 462.24644606 499.90287781 462.25063133 C492.84530173 462.26969254 485.78773613 462.2839176 478.73013926 462.2922433 C470.5957832 462.30199822 462.46170054 462.32826783 454.32744074 462.36874419 C448.03430028 462.3989783 441.74123781 462.41371935 435.44802618 462.41702431 C431.69283265 462.41936792 427.93793085 462.42823665 424.18281555 462.45348549 C420.64343136 462.47689726 417.10452815 462.48094756 413.56508636 462.47072411 C411.66092283 462.46999853 409.75678302 462.48900079 407.85272217 462.50878906 C396.60090203 462.44115415 388.8088645 459.38681929 380.375 452.0625 C378.98983621 450.89943835 377.60441196 449.73668684 376.21875 448.57421875 C375.52136719 447.9817334 374.82398438 447.38924805 374.10546875 446.77880859 C370.7337378 443.93019638 367.30443382 441.15362886 363.875 438.375 C363.21250244 437.83576904 362.55000488 437.29653809 361.86743164 436.7409668 C357.55387604 433.23557398 353.19714521 429.79085207 348.8125 426.375 C343.7015154 422.39322829 338.73973781 418.26834586 333.82128906 414.05200195 C330.15724235 410.92956311 326.40258631 407.9647626 322.5625 405.0625 C317.26971903 401.06075813 312.23886258 396.81644115 307.23291016 392.46337891 C302.88679949 388.70559057 298.40730256 385.18103123 293.82421875 381.71875 C289.93914214 378.76722335 286.20195896 375.67738988 282.5 372.5 C277.83072498 368.4955717 273.05276008 364.69215604 268.1496582 360.97387695 C261.3327688 355.77500017 254.77471693 350.26048808 248.17285156 344.79345703 C239.73472177 337.82868159 231.2173551 330.9593284 222.6640625 324.13671875 C217.12551746 319.69451327 211.62588675 315.20405964 206.11865234 310.72314453 C204.01353476 309.01100811 201.90736134 307.30018031 199.80078125 305.58984375 C193.90050094 300.79917255 188.00211875 296.00657206 182.125 291.1875 C176.36223834 286.46703156 170.54139093 281.82100543 164.71484375 277.1796875 C158.83628996 272.4886212 153.00177053 267.74542882 147.17211914 262.99389648 C142.75697129 259.40390348 138.30226179 255.87103289 133.8125 252.375 C128.72636771 248.4113986 123.78365884 244.31009715 118.88500977 240.11791992 C114.52325347 236.40191135 110.04320204 232.8596838 105.52050781 229.3425293 C99.94647215 224.99290604 94.49707079 220.49833978 89.04931641 215.9921875 C84.50186532 212.23193524 79.92462739 208.51481335 75.3046875 204.84375 C72.76757658 202.81406126 70.25848131 200.75245273 67.75 198.6875 C63.66823866 195.33748299 59.53823582 192.05977694 55.375 188.8125 C48.59047012 183.51343496 41.95048802 178.04798552 35.31640625 172.5625 C26.17540949 165.00665913 16.95491888 157.5475154 7.68359375 150.15234375 C-1.28981286 142.95533204 -10.19068686 135.66735601 -19.08984375 128.37890625 C-24.76888172 123.73657857 -30.46121297 119.11065362 -36.15966797 114.4921875 C-37.78609835 113.17343684 -39.41076186 111.85250772 -41.03515625 110.53125 C-50.52246707 102.8612672 -57.39042145 98.28586529 -70 99 C-72.00857103 99.27704428 -74.01590468 99.58229572 -76 100 C-76.66 99.01 -77.32 98.02 -78 97 C-77.27734375 94.28515625 -77.27734375 94.28515625 -75.9375 91.0625 C-75.463125 89.90492188 -74.98875 88.74734375 -74.5 87.5546875 C-73.7575 85.79511719 -73.7575 85.79511719 -73 84 C-72.566875 82.93007813 -72.13375 81.86015625 -71.6875 80.7578125 C-69.67897464 75.82437209 -67.60119125 70.96563895 -65.14453125 66.23828125 C-64.23516545 64.45989694 -63.36619887 62.66086638 -62.51171875 60.85546875 C-54.37335958 43.88652215 -43.89363968 29.85288768 -28.234375 19.2265625 C-21.70025864 14.72843892 -18.29173484 10.71861062 -14.39453125 3.95703125 C-12.7250594 1.19800935 -11.28647995 -0.80746315 -8.59375 -2.6171875 C-4.83491871 -3.17195477 -3.18361272 -2.01601872 0 0 Z " fill="#00803B" transform="translate(697,177)"/>
<path d="M0 0 C1.61573015 0.33692464 3.23691765 0.64820934 4.86132812 0.94042969 C6.08867676 1.17463623 6.08867676 1.17463623 7.34082031 1.41357422 C8.07768066 1.54691162 8.81454102 1.68024902 9.57373047 1.81762695 C10.429104 2.14549194 10.429104 2.14549194 11.30175781 2.47998047 C11.63175781 3.46998047 11.96175781 4.45998047 12.30175781 5.47998047 C13.29175781 5.80998047 14.28175781 6.13998047 15.30175781 6.47998047 C11.45120804 9.98825915 7.74369301 12.86127776 3.23925781 15.47998047 C-10.1078412 23.84709192 -19.44531638 36.32384579 -27.69824219 49.47998047 C-28.09881836 50.11049316 -28.49939453 50.74100586 -28.91210938 51.390625 C-33.11629039 58.04349018 -36.97755464 64.83408964 -40.47949219 71.88232422 C-40.82159225 72.56902695 -41.16369232 73.25572968 -41.51615906 73.96324158 C-45.00331894 81.01500718 -48.27216953 88.16194046 -51.51065063 95.33050537 C-53.24161644 99.15900812 -54.98551269 102.98161086 -56.72949219 106.80419922 C-57.07260941 107.55638733 -57.41572662 108.30857544 -57.76924133 109.08355713 C-67.66481989 130.7489456 -77.81288333 152.4053656 -90.69824219 172.47998047 C-91.25769531 173.39521484 -91.81714844 174.31044922 -92.39355469 175.25341797 C-96.99858656 182.72856272 -102.20083764 189.6507821 -107.69824219 196.47998047 C-108.32496826 197.26550293 -108.32496826 197.26550293 -108.96435547 198.06689453 C-123.33437534 215.92574955 -139.94917223 232.29105195 -158.69824219 245.47998047 C-159.66117188 246.18123047 -160.62410156 246.88248047 -161.61621094 247.60498047 C-167.12023007 251.5644609 -172.83151215 255.08726983 -178.69824219 258.47998047 C-179.80167969 259.13611328 -180.90511719 259.79224609 -182.04199219 260.46826172 C-205.61358753 274.28846602 -231.21186378 284.37546207 -257.44580078 291.83056641 C-259.56572716 292.44177431 -261.67353351 293.08277799 -263.78027344 293.73779297 C-275.70069253 297.36850634 -275.70069253 297.36850634 -281.69824219 296.47998047 C-284.19824219 294.47998047 -284.19824219 294.47998047 -285.69824219 292.47998047 C-283.68822162 283.91580933 -279.85154534 276.76709348 -275.51074219 269.16748047 C-274.87587891 268.03375 -274.24101562 266.90001953 -273.58691406 265.73193359 C-269.71158946 258.85509368 -265.67197501 252.1012072 -261.49707031 245.40405273 C-259.73663503 242.54238968 -258.050234 239.64827979 -256.38574219 236.72998047 C-249.52480266 224.91736739 -241.89465573 213.61584626 -233.96459961 202.50024414 C-231.17108847 198.58262014 -228.45257877 194.63588239 -225.82324219 190.60498047 C-216.98605041 177.23918627 -207.15685546 164.52820766 -197.03271484 152.11865234 C-195.7825186 150.58346808 -194.54272669 149.03982739 -193.30371094 147.49560547 C-188.76949216 141.87349181 -184.02938191 136.50626887 -179.13183594 131.19873047 C-176.89165967 128.69606164 -174.82453052 126.12816827 -172.76074219 123.47998047 C-168.24748075 117.89290191 -163.26059653 112.82014726 -158.19824219 107.72998047 C-157.40297119 106.92560547 -156.6077002 106.12123047 -155.78833008 105.29248047 C-151.29932615 100.8261226 -146.70944153 96.75836988 -141.62597656 92.97900391 C-139.83278338 91.5846009 -138.26336021 90.12249444 -136.69824219 88.47998047 C-138.76121521 90.06270062 -140.82363168 91.64613723 -142.88574219 93.22998047 C-143.46388672 93.67341797 -144.04203125 94.11685547 -144.63769531 94.57373047 C-147.2230754 96.5602372 -149.7888634 98.5542113 -152.31152344 100.62060547 C-154.69824219 102.47998047 -154.69824219 102.47998047 -157.02246094 103.78076172 C-160.95465021 106.27784542 -164.15059542 109.45808687 -167.51074219 112.66748047 C-168.58086548 113.67959595 -168.58086548 113.67959595 -169.67260742 114.7121582 C-173.86749972 118.69214922 -177.99313534 122.73011822 -182.04199219 126.85888672 C-183.71533774 128.49671315 -185.45661693 129.988412 -187.26074219 131.47998047 C-190.40063276 134.11298288 -192.96919687 137.02498801 -195.61621094 140.14404297 C-198.19885332 143.04164174 -200.93604194 145.75475689 -203.69824219 148.47998047 C-208.24769829 152.98560483 -212.56468092 157.58632219 -216.69824219 162.47998047 C-217.59840587 163.52891166 -218.49953573 164.57701407 -219.40136719 165.62451172 C-221.99437661 168.63763182 -224.57919334 171.65763833 -227.16064453 174.68066406 C-228.15203604 175.84080307 -229.14447123 177.00005141 -230.13818359 178.15820312 C-245.52427822 196.09155719 -259.6465517 214.96857435 -273.18505859 234.32568359 C-274.71502614 236.50387554 -276.25733818 238.67278492 -277.80371094 240.83935547 C-283.3109055 248.56523217 -288.64595059 256.35688047 -293.72558594 264.37060547 C-295.50434402 267.17435088 -297.30516645 269.95985622 -299.13574219 272.72998047 C-299.81443359 273.75865234 -299.81443359 273.75865234 -300.50683594 274.80810547 C-301.69824219 276.47998047 -301.69824219 276.47998047 -303.69824219 278.47998047 C-306.81061305 278.81828165 -308.93125348 278.86056956 -311.76074219 277.45654297 C-314.57392813 274.58663957 -315.06998097 271.362068 -315.82324219 267.54248047 C-315.98791992 266.74398682 -316.15259766 265.94549316 -316.32226562 265.12280273 C-324.00513181 226.02005659 -319.76628886 186.52904859 -305.69824219 149.47998047 C-305.44429688 148.79323242 -305.19035156 148.10648438 -304.92871094 147.39892578 C-293.38167575 116.20031868 -273.03829763 89.77993272 -249.69824219 66.47998047 C-249.19421875 65.94115234 -248.69019531 65.40232422 -248.17089844 64.84716797 C-242.31969012 58.65558465 -235.4751418 53.60094529 -228.69824219 48.47998047 C-228.14249512 48.05813477 -227.58674805 47.63628906 -227.01416016 47.20166016 C-162.2880069 -1.55109303 -78.57394885 -16.56559049 0 0 Z " fill="#00803B" transform="translate(642.6982421875,173.52001953125)"/>
<path d="M0 0 C3.78438434 1.35156583 4.64453994 3.49670573 6.625 6.9375 C7.62646484 10.27392578 7.62646484 10.27392578 8.3359375 13.8828125 C8.61445813 15.22138022 8.89310823 16.55992101 9.171875 17.8984375 C9.58684838 19.97038206 9.99624829 22.04329415 10.40136719 24.1171875 C12.99596443 37.23466704 16.74231076 49.92330006 27.7890625 58.3515625 C28.93433287 59.10149102 30.08834464 59.8382115 31.25 60.5625 C31.86319092 60.9536499 32.47638184 61.3447998 33.1081543 61.74780273 C36.7828675 64.01962582 40.29875464 65.68657587 44.4375 67 C49.53386464 68.63411985 52.59322503 71.21264858 56.41015625 74.8984375 C59.83375624 78.0503232 63.68699146 80.4797358 67.625 82.9375 C67.06183907 86.37847346 66.10114512 87.75075927 63.37890625 89.890625 C62.37766724 90.68968262 62.37766724 90.68968262 61.35620117 91.50488281 C60.64052979 92.06014648 59.9248584 92.61541016 59.1875 93.1875 C58.45829346 93.7659668 57.72908691 94.34443359 56.9777832 94.94042969 C54.8662309 96.61395591 52.74594176 98.27590379 50.625 99.9375 C48.85230355 101.35183463 47.08109753 102.76804309 45.3125 104.1875 C44.53519531 104.80753906 43.75789063 105.42757812 42.95703125 106.06640625 C39.52503394 108.82005233 36.125157 111.61238884 32.72265625 114.40234375 C27.07489366 119.02962681 21.40021965 123.62398153 15.73193359 128.22607422 C13.61863734 129.94266828 11.50642231 131.66058379 9.39453125 133.37890625 C3.04804927 138.54169243 -3.30520143 143.69395248 -9.703125 148.79296875 C-12.49789236 151.03613729 -15.27675056 153.2980123 -18.05444336 155.56225586 C-23.76749644 160.21905764 -29.49927987 164.84371251 -35.3125 169.375 C-41.40940775 174.13051772 -47.38166585 179.0287332 -53.33959961 183.95678711 C-56.99537145 186.98002927 -60.66000033 189.98698156 -64.375 192.9375 C-68.89696089 196.53187917 -73.35565317 200.20049778 -77.8125 203.875 C-78.54903809 204.48134277 -79.28557617 205.08768555 -80.04443359 205.71240234 C-83.26224465 208.36299632 -86.47618185 211.01732106 -89.66796875 213.69921875 C-97.41813364 220.16659772 -103.58643869 225.03984618 -113.97200012 225.08467102 C-115.11170761 225.09182632 -116.2514151 225.09898163 -117.42565918 225.10635376 C-118.6719812 225.10904266 -119.91830322 225.11173157 -121.20239258 225.11450195 C-122.51821823 225.12107315 -123.83404388 225.12764435 -125.18974304 225.13441467 C-129.54966013 225.15541213 -133.9095774 225.16581194 -138.26953125 225.17578125 C-139.7725851 225.1798302 -141.27563877 225.18394716 -142.77869225 225.18813133 C-149.83999283 225.20717229 -156.90128303 225.22140649 -163.96260434 225.2297433 C-172.10545978 225.23951671 -180.24804347 225.26584331 -188.39080316 225.30624419 C-194.69073108 225.33642618 -200.99058117 225.35121408 -207.29057997 225.35452431 C-211.05067784 225.35687212 -214.81048502 225.36579724 -218.57050514 225.39098549 C-222.10908599 225.41430856 -225.64718558 225.41848284 -229.18582344 225.40822411 C-231.09650933 225.40749472 -233.00717101 225.42655537 -234.91775513 225.44628906 C-241.62719962 225.40571208 -245.96714199 225.044347 -251.375 220.9375 C-254.1354025 217.75242019 -255.24480829 215.71865024 -255.9375 211.5625 C-253.97430947 198.91082768 -240.70373322 191.29005297 -231.375 183.9375 C-225.12795975 178.98742312 -218.95679741 173.95161943 -212.8125 168.875 C-207.8586366 164.7832583 -202.88921488 160.73302279 -197.7890625 156.82421875 C-193.67304023 153.60732756 -189.64325393 150.2836564 -185.59619141 146.98071289 C-181.16592717 143.37241592 -176.69620391 139.82209086 -172.1875 136.3125 C-167.01108603 132.27793127 -161.97240672 128.10727559 -156.98095703 123.84667969 C-153.09793164 120.53527918 -149.15145142 117.32181482 -145.15234375 114.15234375 C-141.62136784 111.3365022 -138.12475881 108.47947784 -134.625 105.625 C-129.52132729 101.46485335 -124.38261935 97.35777211 -119.1875 93.3125 C-114.10136771 89.3488986 -109.15865884 85.24759715 -104.26000977 81.05541992 C-99.89546797 77.33703824 -95.41261304 73.79244744 -90.88671875 70.2734375 C-86.14763707 66.57591223 -81.50333247 62.77243376 -76.875 58.9375 C-71.63525656 54.59758196 -66.36327625 50.31146096 -61 46.125 C-55.05209017 41.48201847 -49.19386451 36.74179326 -43.375 31.9375 C-4.52893586 -0.11918252 -4.52893586 -0.11918252 0 0 Z " fill="#00803B" transform="translate(278.375,414.0625)"/>
<path d="M0 0 C7.85161736 9.37832074 5.53910457 25.08169463 4.57421875 36.6328125 C3.21219614 50.52887169 1.08790805 64.30688994 -1.11328125 78.08984375 C-1.33891314 79.50748992 -1.33891314 79.50748992 -1.56910324 80.95377541 C-5.28082799 104.21809866 -9.45591274 127.3965563 -13.64770508 150.57818604 C-19.05941875 180.47174273 -19.05941875 180.47174273 -23.9296875 210.45703125 C-24.22953049 212.39904671 -24.22953049 212.39904671 -24.53543091 214.3802948 C-25.70720231 222.24003128 -26.50368329 230.06904993 -27 238 C-26.01 237.34 -25.02 236.68 -24 236 C-23.01 236 -22.02 236 -21 236 C-20.1875 238.625 -20.1875 238.625 -20 242 C-22.0625 245.375 -22.0625 245.375 -25 248 C-28.125 248.625 -28.125 248.625 -31 248 C-33.2403025 245.75048086 -33.94988528 244.39693373 -34.35009766 241.22705078 C-33.9911443 222.66198342 -30.45078016 204.25140638 -27.29296875 185.98828125 C-27.0324311 184.47462532 -26.77189756 182.96096869 -26.5113678 181.4473114 C-24.55399293 170.10017481 -22.54819759 158.7617628 -20.52734375 147.42578125 C-20.38070534 146.60302704 -20.23406693 145.78027283 -20.08298492 144.93258667 C-18.73461336 137.369164 -17.38476254 129.80600755 -16.02905273 122.24389648 C-6.52626804 72.71064848 -6.52626804 72.71064848 -2.75 22.5625 C-2.74057373 21.27384033 -2.73114746 19.98518066 -2.72143555 18.6574707 C-2.72784058 16.8489563 -2.72784058 16.8489563 -2.734375 15.00390625 C-2.73775879 13.37690796 -2.73775879 13.37690796 -2.74121094 11.71704102 C-2.8046509 8.78027318 -2.8046509 8.78027318 -5 6 C-51.21670765 32.5746069 -70.13923079 128.52117672 -84.59057617 177.32324219 C-84.88295166 178.30067383 -85.17532715 179.27810547 -85.4765625 180.28515625 C-85.849021 181.55178101 -85.849021 181.55178101 -86.22900391 182.84399414 C-87 185 -87 185 -89 188 C-91.4375 187.625 -91.4375 187.625 -94 187 C-95.70653333 183.58693335 -94.3209068 179.80810359 -93.70703125 176.15625 C-93.40496835 174.28623718 -93.1030541 172.41620034 -92.80126953 170.54614258 C-92.63967346 169.55933502 -92.47807739 168.57252747 -92.31158447 167.55581665 C-89.7726241 152.01015694 -87.40630546 136.46430554 -85.625 120.8125 C-85.54609528 120.1215625 -85.46719055 119.430625 -85.38589478 118.71875 C-84.90527111 114.48106144 -84.44262947 110.24181699 -84 106 C-83.91411621 105.23538452 -83.82823242 104.47076904 -83.73974609 103.6829834 C-83.12087185 97.959783 -82.82751472 92.3096542 -82.796875 86.5546875 C-82.79117493 85.69996857 -82.78547485 84.84524963 -82.77960205 83.96463013 C-82.77023858 82.17483731 -82.763653 80.38502793 -82.75976562 78.59521484 C-82.74999774 75.87437058 -82.71886784 73.1542636 -82.6875 70.43359375 C-82.6809736 68.68229608 -82.67572171 66.9309931 -82.671875 65.1796875 C-82.6533548 63.97625198 -82.6533548 63.97625198 -82.63446045 62.74850464 C-82.65614488 57.19969148 -83.79841072 53.09853201 -86 48 C-93.66762185 49.81194522 -96.59222381 55.45428702 -100.59521484 61.71728516 C-135.8434247 118.99409472 -157.7426777 187.03148996 -176.77734375 251.25390625 C-176.98741058 251.96212524 -177.19747742 252.67034424 -177.41390991 253.40002441 C-178.37505567 256.6522518 -179.32118026 259.90747157 -180.24902344 263.16943359 C-180.73483887 264.84706787 -180.73483887 264.84706787 -181.23046875 266.55859375 C-181.50270264 267.52079834 -181.77493652 268.48300293 -182.05541992 269.47436523 C-183.02826672 272.07558006 -184.22544953 273.87995631 -186 276 C-190.875 275.125 -190.875 275.125 -192 274 C-192.47382653 265.9626572 -191.0372893 258.38106369 -189.55078125 250.5078125 C-189.41986902 249.80131687 -189.28895679 249.09482124 -189.15407753 248.36691666 C-185.74975403 230.00735686 -181.76495146 211.76957042 -177.76849365 193.53167725 C-176.99761513 190.00672405 -176.23275008 186.48047815 -175.46794701 182.95420265 C-170.70056049 160.98116066 -165.75032599 139.05500099 -160.65968227 117.15475082 C-158.63943278 108.45910344 -156.64635901 99.75727438 -154.65625 91.0546875 C-154.48264261 90.29570538 -154.30903522 89.53672325 -154.13016701 88.75474167 C-153.26641434 84.9783448 -152.40304742 81.20185999 -151.54003906 77.42529297 C-150.65219539 73.54021657 -149.76332549 69.65537565 -148.87424469 65.7705822 C-148.17547181 62.71667079 -147.4773167 59.6626184 -146.77934265 56.60852432 C-146.4510391 55.17240621 -146.12252241 53.73633681 -145.79377747 52.30031967 C-145.3416892 50.32519829 -144.89054943 48.34985989 -144.43945312 46.37451172 C-144.1845813 45.25970428 -143.92970947 44.14489685 -143.66711426 42.99630737 C-142.7055095 38.67731196 -141.87349605 34.67529436 -141.8671875 30.2421875 C-141.86589844 29.36949219 -141.86460937 28.49679687 -141.86328125 27.59765625 C-141.86714844 26.69917969 -141.87101563 25.80070313 -141.875 24.875 C-141.87113281 23.96878906 -141.86726562 23.06257812 -141.86328125 22.12890625 C-141.86457031 21.25878906 -141.86585938 20.38867188 -141.8671875 19.4921875 C-141.86887939 18.30665283 -141.86887939 18.30665283 -141.87060547 17.09716797 C-141.92171621 14.80617599 -141.92171621 14.80617599 -143 12 C-167.6943947 20.60255553 -182.74064286 45.01745623 -193.90234375 67.39453125 C-198.9609644 78.08789952 -205.03896263 92.82860157 -201.12890625 104.62890625 C-197.9833206 111.54919469 -194.302924 115.37511961 -187.20703125 118.0546875 C-183.84665599 119.04520006 -180.59149373 119.62978661 -177.125 120.125 C-175.97257812 120.29257812 -174.82015625 120.46015625 -173.6328125 120.6328125 C-172.32957031 120.81457031 -172.32957031 120.81457031 -171 121 C-170.67 122.98 -170.34 124.96 -170 127 C-181.3822345 127.60496128 -191.31242567 126.40721679 -200.1640625 118.75390625 C-206.86893898 112.34860936 -209.15087914 106.20752702 -209.5 97.0625 C-208.90996747 72.25654905 -193.69016719 47.37139829 -178 29 C-177.20335937 28.04738281 -176.40671875 27.09476563 -175.5859375 26.11328125 C-167.63158275 16.86144909 -158.55711407 9.33898669 -147 5 C-142.68224315 5 -140.8058612 5.21591883 -137.6875 8.25 C-131.21356188 18.80012138 -133.55796908 31.10348435 -136.0703125 42.609375 C-136.29063644 43.64139542 -136.51096039 44.67341583 -136.73796082 45.73670959 C-139.28345916 57.5325292 -142.04698327 69.27917945 -144.80729008 81.02617168 C-151.1857833 108.1722169 -157.36919074 135.35849775 -163.34682846 162.59563065 C-163.87140002 164.98361199 -164.39760271 167.37122865 -164.92422485 169.75875854 C-165.7556831 173.53014919 -166.58253233 177.30252187 -167.40571404 181.07572746 C-167.70667227 182.45295799 -168.00885645 183.82992137 -168.31244087 185.20657539 C-169.99280244 192.8352609 -171.46210396 200.44254363 -172.56887817 208.17651367 C-173.33825922 213.21531417 -174.38650443 218.15951328 -176 223 C-175.34 223 -174.68 223 -174 223 C-173.87367188 221.81535156 -173.74734375 220.63070313 -173.6171875 219.41015625 C-169.26377888 185.01220265 -149.46758865 147.45260747 -136 116 C-135.6479248 115.17725586 -135.29584961 114.35451172 -134.93310547 113.50683594 C-130.40896535 103.01837466 -125.47943114 92.72690964 -120.41928101 82.48809814 C-119.77685546 81.18719191 -119.13680455 79.88510965 -118.49942017 78.58172607 C-114.26905216 69.95092785 -109.55108559 61.86821194 -104 54 C-103.32356445 53.04053467 -102.64712891 52.08106934 -101.95019531 51.0925293 C-97.71423196 45.22076789 -93.17042857 40.87000814 -86 39 C-82.03793323 40.03358264 -81.14595574 41.7914918 -78.8125 45.125 C-74.37724103 53.7410905 -74.64211278 63.11288055 -74.6875 72.5625 C-74.68766113 73.24876465 -74.68782227 73.9350293 -74.68798828 74.64208984 C-74.71001862 88.30404615 -75.87542116 101.77151159 -77.34375 115.34375 C-77.86888117 120.27779493 -78.14163834 125.04265824 -78 130 C-78 130.99 -78 131.98 -78 133 C-77.77828125 132.20464844 -77.5565625 131.40929687 -77.328125 130.58984375 C-66.00944884 92.24577778 -49.49259024 51.07733859 -27 18 C-26.61070312 17.42507813 -26.22140625 16.85015625 -25.8203125 16.2578125 C-10.3034435 -6.34058061 -10.3034435 -6.34058061 0 0 Z " fill="#E55342" transform="translate(683,875)"/>
<path d="M0 0 C2 2 2 2 2.375 5.125 C1.24681604 16.78290094 -8.8633487 25.16851467 -17 32.75 C-20.45845507 36.13399072 -21.63655734 39.37944431 -23 44 C-23.18433594 44.58394531 -23.36867188 45.16789063 -23.55859375 45.76953125 C-24.20225194 49.02199876 -24.1712005 52.18794132 -24.1875 55.5 C-24.20167969 56.8096875 -24.21585938 58.119375 -24.23046875 59.46875 C-24.01896594 62.70940321 -23.85013901 64.39382412 -22 67 C-18.25166316 69.49889123 -15.33641519 69.86015859 -11 69 C-4.57591943 65.65944856 0.70559523 60.80661304 5.75 55.6875 C6.7704541 54.66547485 6.7704541 54.66547485 7.81152344 53.62280273 C13.373925 47.92361018 18.2359605 41.81448166 22.83886719 35.32104492 C23.33032227 34.63888916 23.82177734 33.9567334 24.328125 33.25390625 C24.96089355 32.34620483 24.96089355 32.34620483 25.60644531 31.42016602 C27.32765833 29.6660847 28.58399922 29.29842153 31 29 C31.33 29.33 31.66 29.66 32 30 C31.85106234 36.52843399 29.30511293 39.85764698 25.125 44.6875 C24.53783203 45.38375488 23.95066406 46.08000977 23.34570312 46.79736328 C21.57909538 48.87861819 19.79143049 50.94010868 18 53 C17.51112305 53.57540527 17.02224609 54.15081055 16.51855469 54.74365234 C8.15230338 64.58577478 -1.98089142 75.70122667 -15.375 77.4375 C-20.16715744 76.85913617 -23.31190414 75.0637004 -27 72 C-28.9375 69.3125 -28.9375 69.3125 -30 67 C-30.33 66.34 -30.66 65.68 -31 65 C-31.23952065 61.9852603 -31.18520448 58.96070327 -31.1875 55.9375 C-31.19974609 55.11572266 -31.21199219 54.29394531 -31.22460938 53.44726562 C-31.23813094 47.71862951 -30.47235089 42.53320309 -29 37 C-41.04728581 43.23877301 -51.96700412 51.39787162 -62.8125 59.5 C-63.48804932 60.004104 -64.16359863 60.50820801 -64.85961914 61.02758789 C-65.48989014 61.50317139 -66.12016113 61.97875488 -66.76953125 62.46875 C-67.59868042 63.09426758 -67.59868042 63.09426758 -68.44458008 63.73242188 C-70.06518743 64.99859549 -70.06518743 64.99859549 -71.5769043 66.65820312 C-73 68 -73 68 -75 68 C-76.74987555 75.30546454 -78.35766417 82.6269108 -79.83203125 89.9921875 C-80.0697802 91.17983704 -80.0697802 91.17983704 -80.31233215 92.39147949 C-80.5549604 93.6039032 -80.5549604 93.6039032 -80.80249023 94.84082031 C-99.24299272 186.97224718 -99.24299272 186.97224718 -124.625 205.8125 C-129.05286601 208.38502779 -131.9398299 208.89777211 -137 208 C-141.76835614 205.9564188 -144.23042246 203.11237047 -146.375 198.4375 C-153.31052603 181.03837601 -147.74603115 159.93841065 -140.97460938 143.24902344 C-130.32613606 118.67644423 -114.48717825 98.12102437 -96 79 C-95.45150391 78.42958984 -94.90300781 77.85917969 -94.33789062 77.27148438 C-87.79574831 70.49028692 -87.79574831 70.49028692 -85 68 C-84.34 68 -83.68 68 -83 68 C-82.49295891 64.62601911 -81.99563464 61.25067379 -81.5 57.875 C-81.35691406 56.92367188 -81.21382812 55.97234375 -81.06640625 54.9921875 C-80.38038663 50.28805294 -79.80728993 45.7695743 -80 41 C-83.92930808 44.6911682 -87.13713783 48.68460862 -90.3515625 53.01171875 C-92 55 -92 55 -95 57 C-101.14806903 57.54893473 -101.14806903 57.54893473 -103.69140625 55.91015625 C-106.77002033 51.41629868 -105.55246814 44.27841614 -105 39 C-102.78414752 27.56461845 -97.02576868 12.53117467 -87.66796875 5.1640625 C-80.98281978 1.0161118 -80.98281978 1.0161118 -76.1875 0.9375 C-70.56603774 2.81132075 -70.56603774 2.81132075 -68 5 C-67.1875 8.1875 -67.1875 8.1875 -67 11 C-70.04854997 10.49190834 -73.01386895 9.99624383 -76 9.1875 C-80.32353638 8.91727898 -81.75623053 10.16170171 -85 13 C-92.62000968 21.69157355 -98.57592193 36.33132083 -98 48 C-97.67 48.66 -97.34 49.32 -97 50 C-90.82785554 41.72744897 -84.81202573 33.39809349 -79.17431641 24.74975586 C-77.57218575 22.30141073 -76.075548 20.075548 -74 18 C-73.01 18 -72.02 18 -71 18 C-69.43168356 21.13663287 -70.09063983 24.39644598 -70.3125 27.8125 C-70.35882568 28.57425537 -70.40515137 29.33601074 -70.45288086 30.12084961 C-70.8342273 35.80416091 -71.56690159 41.36745757 -72.59765625 46.97265625 C-73.09209969 50.69298307 -73.06057883 54.24815096 -73 58 C-72.2471875 57.40574219 -71.494375 56.81148437 -70.71875 56.19921875 C-62.06019874 49.42049364 -53.1327774 43.12111681 -44 37 C-43.33661621 36.55108398 -42.67323242 36.10216797 -41.98974609 35.63964844 C-40.08345627 34.3531028 -38.16866165 33.08050058 -36.25 31.8125 C-35.67773682 31.42570068 -35.10547363 31.03890137 -34.51586914 30.64038086 C-31.28007251 28.53324876 -30.00616266 28 -26 28 C-25.29037109 26.33324219 -25.29037109 26.33324219 -24.56640625 24.6328125 C-16.05610724 5.26251832 -16.05610724 5.26251832 -6.8984375 -0.26953125 C-4.2710881 -1.2804661 -2.64727465 -0.83598147 0 0 Z " fill="#E55443" transform="translate(1088,971)"/>
<path d="M0 0 C1.20295967 0.00136711 1.20295967 0.00136711 2.43022156 0.00276184 C3.26220566 -0.00152328 4.09418976 -0.00580841 4.9513855 -0.01022339 C6.72093294 -0.01597776 8.49050404 -0.01645884 10.26005554 -0.01213074 C12.9246324 -0.00901371 15.5880513 -0.03226314 18.25248718 -0.05778503 C31.76523593 -0.10863636 45.40403034 0.13882517 55.83647156 9.86604309 C62.93683029 17.47734575 65.26584048 26.02511326 65.16069031 36.30354309 C64.44429333 45.89814544 61.34817204 52.49641411 54.41069031 59.11604309 C50.37246929 62.49150264 46.23420955 64.07039605 41.16069031 65.30354309 C41.70789 68.97168987 42.56986415 71.30699633 44.78569031 74.27229309 C45.3236322 75.002547 45.8615741 75.7328009 46.41581726 76.48518372 C46.99162537 77.25024231 47.56743347 78.0153009 48.16069031 78.80354309 C49.34257468 80.40705063 50.52355812 82.01122258 51.70365906 83.61604309 C52.58030212 84.80133606 52.58030212 84.80133606 53.47465515 86.01057434 C55.85229939 89.24411542 58.17645763 92.5121923 60.47319031 95.80354309 C61.19119812 96.82448059 61.90920593 97.84541809 62.64897156 98.89729309 C64.16069031 101.30354309 64.16069031 101.30354309 64.16069031 103.30354309 C64.82069031 103.30354309 65.48069031 103.30354309 66.16069031 103.30354309 C65.83069031 103.96354309 65.50069031 104.62354309 65.16069031 105.30354309 C63.76385948 105.27006784 62.36788393 105.20022525 60.97319031 105.11604309 C60.19588562 105.0812384 59.41858093 105.04643372 58.61772156 105.01057434 C52.35688587 103.20896661 48.63580748 96.00947133 45.03569031 90.92854309 C44.45859314 90.14430969 43.88149597 89.36007629 43.28691101 88.55207825 C40.49423361 84.73481591 37.91290928 80.9781389 35.71147156 76.78791809 C32.37171562 70.71022018 32.37171562 70.71022018 27.16069031 66.30354309 C19.42858038 64.517656 10.9571541 65.02397757 3.16069031 66.30354309 C1.10379571 68.36043769 1.90321954 72.65910307 1.84428406 75.49494934 C1.82350296 76.31478806 1.80272186 77.13462677 1.78131104 77.97930908 C1.71572537 80.6081321 1.65688905 83.23705813 1.59819031 85.86604309 C1.55501364 87.6440487 1.51139963 89.42204374 1.46733093 91.20002747 C1.36003488 95.56775943 1.25879327 99.93559536 1.16069031 104.30354309 C-4.99165344 104.40119934 -4.99165344 104.40119934 -6.83930969 104.30354309 C-8.78868781 102.35416497 -7.97289696 99.38735775 -7.98594666 96.79174805 C-7.98549347 95.85406082 -7.98504028 94.9163736 -7.98457336 93.95027161 C-7.98793198 92.96822754 -7.99129059 91.98618347 -7.99475098 90.97438049 C-8.00429243 87.71039077 -8.00620567 84.44645216 -8.00727844 81.18244934 C-8.01048875 78.92422463 -8.01385264 76.66600014 -8.0173645 74.40777588 C-8.02336374 69.66721616 -8.02520358 64.9266747 -8.02461243 60.18611145 C-8.02451075 54.09812224 -8.0381655 48.01024952 -8.05538464 41.92228794 C-8.06647838 37.25643369 -8.06853245 32.59060784 -8.0680027 27.92474174 C-8.06918669 25.67956579 -8.07363175 23.4343892 -8.08133507 21.18922615 C-8.09108233 18.05480307 -8.08827784 14.92063591 -8.08222961 11.78620911 C-8.08784912 10.85054611 -8.09346863 9.91488312 -8.09925842 8.9508667 C-8.09506393 8.09973297 -8.09086945 7.24859924 -8.08654785 6.37167358 C-8.08709262 5.63000726 -8.08763739 4.88834093 -8.08819866 4.12419987 C-7.45215629 -0.52853687 -3.84504175 0.04961564 0 0 Z " fill="#E55342" transform="translate(354.8393096923828,718.6964569091797)"/>
<path d="M0 0 C3 1.6875 3 1.6875 5 4 C5.8125 7.25 5.8125 7.25 6 10 C5.01 10.33 4.02 10.66 3 11 C2.071875 10.360625 1.14375 9.72125 0.1875 9.0625 C-3.44449655 6.71238459 -4.7816303 6.13910822 -9 7 C-17.92504157 11.54516006 -22.0481782 23.61311299 -25 32.5625 C-26.07081154 36.07305828 -25.90016814 38.44308562 -25 42 C-18.78564139 35.47178489 -13.34667496 28.63676334 -8.16308594 21.27148438 C-7.68000977 20.60310547 -7.19693359 19.93472656 -6.69921875 19.24609375 C-6.27471436 18.64466553 -5.85020996 18.0432373 -5.4128418 17.42358398 C-3.69413582 15.69181026 -2.37571322 15.38544767 0 15 C1.63075002 20.14157961 2.3998199 24.95399582 2.875 30.3125 C3.62725798 37.65737475 4.5532658 45.5532658 10 51 C14.41018382 51.08647419 17.17968687 50.26201981 20.375 47.3125 C27.58019106 39.42726843 32.91403199 29.5359384 37.80859375 20.109375 C39 18 39 18 41 16 C43.125 16.375 43.125 16.375 45 17 C45.47179687 15.30230469 45.47179687 15.30230469 45.953125 13.5703125 C46.38459625 12.08830256 46.81693316 10.60654446 47.25 9.125 C47.45496094 8.37863281 47.65992188 7.63226562 47.87109375 6.86328125 C49.51390229 1.33747071 49.51390229 1.33747071 52.171875 -0.5078125 C52.77515625 -0.67023437 53.3784375 -0.83265625 54 -1 C56.16872441 2.25308662 56.13812315 3.08303647 55.4921875 6.76171875 C54.63862427 10.64339915 53.63989403 14.48690673 52.62109375 18.328125 C51.88679038 21.02982933 51.88679038 21.02982933 52 24 C52.38671875 23.45730469 52.7734375 22.91460938 53.171875 22.35546875 C53.95304688 21.28232422 53.95304688 21.28232422 54.75 20.1875 C55.26046875 19.47980469 55.7709375 18.77210938 56.296875 18.04296875 C58.85801288 14.97077813 61.15060912 13.28915434 64.9375 12 C68 12 68 12 70.625 13.9375 C75.79765518 20.60750274 78.10845223 27.96391322 80.65625 35.92578125 C82.06934459 39.1586459 82.82292736 40.49779718 86 42 C88.83373026 41.86547376 90.41710659 41.4491146 92.66796875 39.71484375 C97.26474112 34.33815628 100.89101128 28.52309396 104.36010742 22.37280273 C107.3770372 17.24639574 107.3770372 17.24639574 110.6171875 15.96484375 C113 16 113 16 116 17 C116.165 16.195625 116.33 15.39125 116.5 14.5625 C119.09063163 8.40974987 123.54594956 3.65272784 129.0625 -0.0625 C132.66827619 -1.21327963 135.23353465 -1.47080817 139 -1 C142.78749994 1.03942304 145.95132931 3.14367871 148 7 C147.6875 9.25 147.6875 9.25 147 11 C143.96661727 10.37984175 141.76558298 9.34071264 139.125 7.75 C135.89264088 6.09777183 135.41822038 5.87935951 131.75 6.9375 C126.73266735 10.70049949 124.02423839 15.44428066 121.4375 21.0625 C121.13448975 21.71355713 120.83147949 22.36461426 120.51928711 23.03540039 C117.90228807 28.84804211 116.22365118 34.74189827 115 41 C117.24542541 41.23096481 117.24542541 41.23096481 119.1015625 38.98046875 C124.19152254 33.34684425 128.87991586 27.66710028 133.2109375 21.41015625 C134.97239199 19.03719245 136.85963431 17.03193306 139 15 C142 16 142 16 143 18 C143.3219464 20.83312836 143.60811042 23.66173197 143.875 26.5 C144.69931521 34.56582851 145.65308952 42.95342932 150 50 C153.32416555 51.17761741 153.32416555 51.17761741 157 51 C166.6907002 44.40664385 172.36333259 33.07677979 177.54956055 22.88037109 C178.13797729 21.75816162 178.13797729 21.75816162 178.73828125 20.61328125 C179.07899658 19.94079346 179.41971191 19.26830566 179.77075195 18.57543945 C181 17 181 17 183.01635742 16.21166992 C185 16 185 16 187 17 C187.31453125 15.86820313 187.6290625 14.73640625 187.953125 13.5703125 C188.38459625 12.08830256 188.81693316 10.60654446 189.25 9.125 C189.55744141 8.00544922 189.55744141 8.00544922 189.87109375 6.86328125 C191.51390229 1.33747071 191.51390229 1.33747071 194.171875 -0.5078125 C194.77515625 -0.67023437 195.3784375 -0.83265625 196 -1 C199.06657655 5.1331531 196.22930085 12.93243693 194.65625 19.14453125 C193.88800846 21.99897838 193.88800846 21.99897838 194 25 C194.30292969 24.46890625 194.60585938 23.9378125 194.91796875 23.390625 C198.12920625 17.97598455 200.85056079 14.11542639 207 11.9375 C210 12 210 12 212.625 13.9375 C217.58441336 20.33253302 220.04511507 27.56879724 222.75390625 35.14453125 C223.91949634 37.81552297 224.70780008 39.25580674 227 41 C229.82491198 41.91955603 229.82491198 41.91955603 233 41 C239.00168533 36.36634589 242.72333904 28.84185621 246.44824219 22.37304688 C246.85075195 21.69435547 247.25326172 21.01566406 247.66796875 20.31640625 C248.02141357 19.70224854 248.3748584 19.08809082 248.73901367 18.45532227 C250.37123963 16.57154706 251.55320283 16.28460956 254 16 C254.66 16.33 255.32 16.66 256 17 C255.80648349 25.07491599 255.80648349 25.07491599 252.875 28.4375 C251.92625 29.283125 250.9775 30.12875 250 31 C248.84473166 32.60362248 247.72246307 34.23127715 246.625 35.875 C243.27118211 40.78463712 239.44533472 46.27733264 234 49 C229.17446288 49.6755752 225.91377385 49.55171251 221.6875 47 C214.51027502 39.88192798 212.10271243 28.30813729 209 19 C204.48507054 21.24189601 202.66789718 23.61885297 200.25 28 C199.91782471 28.60013916 199.58564941 29.20027832 199.2434082 29.81860352 C194.11659615 39.25008162 189.41798738 49.03155258 185.375 58.9765625 C184 62 184 62 181.8125 63.4375 C181.214375 63.623125 180.61625 63.80875 180 64 C179.01 63.34 178.02 62.68 177 62 C177.24249081 52.19014451 179.91423096 43.06080516 182.55688477 33.68310547 C183.04243281 32.12890184 183.04243281 32.12890184 183 31 C179.35865572 35.58211712 175.8568501 40.18066554 172.625 45.0625 C168.28147513 51.26753553 163.23872543 57.8308676 155.4375 59.375 C150.91948578 59.46978352 148.08077272 57.83305591 144.71875 54.91796875 C138.87752706 48.39969497 137.69594387 39.31269457 136 31 C131.68614226 35.1847458 127.99496538 39.66484148 124.28125 44.37890625 C118.78367417 50.69547026 118.78367417 50.69547026 114.4375 51.4375 C111.34509188 50.88245239 110.1648425 50.30553457 108 48 C107.70438924 45.12961948 107.62056984 42.66245255 107.75 39.8125 C107.76804687 39.06291016 107.78609375 38.31332031 107.8046875 37.54101562 C107.85175891 35.6934629 107.92350234 33.84656841 108 32 C107.27296875 32.96099609 107.27296875 32.96099609 106.53125 33.94140625 C95.66163166 47.96739453 95.66163166 47.96739453 89.7421875 49.63671875 C85.51339864 49.95925349 82.59001663 49.1623468 79.1875 46.625 C75.23648575 42.7468155 73.7348196 38.15165994 72 33 C71.32639348 31.1822908 70.63921369 29.36954466 69.9375 27.5625 C69.48697266 26.35787109 69.48697266 26.35787109 69.02734375 25.12890625 C67.96269701 22.92269912 66.82645026 21.6091389 65 20 C56.35112034 27.90262677 51.67307965 40.48967397 46.859375 50.9921875 C45.00042059 55.04390855 43.01130566 59.0218866 41 63 C37 63 37 63 35 62 C35.51438013 53.89851301 37.2267557 46.31994866 39.16015625 38.46484375 C40.03926144 35.43221971 40.03926144 35.43221971 40 34 C36.63827149 37.1113063 34.18061801 40.56741811 31.6875 44.375 C27.43349534 50.69309875 23.12931667 55.86531991 16 59 C11.90609491 59.54070445 8.92413359 59.32999333 5.375 57.25 C-0.49181988 52.65168172 -2.88120766 44.12494071 -4 37 C-4.03824623 34.66698014 -4.04574284 32.33288492 -4 30 C-8.37821563 34.30564852 -12.51472898 38.80050479 -16.62695312 43.359375 C-21.81190671 49.03970631 -21.81190671 49.03970631 -25 51 C-28.04917936 50.92377052 -29.7448199 50.14773585 -32.375 48.625 C-35.13608251 44.16478979 -34.02505645 39.97629147 -33 35 C-29.68749155 22.65696256 -24.89377996 7.37388116 -13.25 0.5625 C-8.70170692 -1.4923999 -4.74935983 -1.40219195 0 0 Z " fill="#E55342" transform="translate(728,984)"/>
<path d="M0 0 C3.2948851 6.39273389 6.26957414 12.82309666 8.9375 19.5 C9.72211261 21.43902215 10.50730903 23.37780813 11.29296875 25.31640625 C11.93564697 26.90606201 11.93564697 26.90606201 12.59130859 28.52783203 C14.99386681 34.44970083 17.42490106 40.35982894 19.85757446 46.26937866 C20.45277084 47.71539059 21.04763958 49.16153742 21.6421814 50.6078186 C24.96729105 58.69564451 28.31538273 66.77288421 31.71875 74.828125 C32.01783264 75.53691299 32.31691528 76.24570099 32.62506104 76.97596741 C34.04902059 80.34949984 35.4772069 83.7211232 36.91308594 87.08959961 C37.42129883 88.29108643 37.92951172 89.49257324 38.453125 90.73046875 C38.89817383 91.77614014 39.34322266 92.82181152 39.80175781 93.89916992 C41.09180789 97.2375819 42.06591244 100.54707645 43 104 C35.45318694 104.37115474 35.45318694 104.37115474 33.51367188 102.78271484 C31.73891677 100.69251133 30.80934934 98.70711137 29.73828125 96.18359375 C29.34189453 95.25482422 28.94550781 94.32605469 28.53710938 93.36914062 C28.13298828 92.40169922 27.72886719 91.43425781 27.3125 90.4375 C26.89677734 89.46619141 26.48105469 88.49488281 26.05273438 87.49414062 C23 80.28086515 23 80.28086515 23 78 C15.79140993 78.06688175 8.58336729 78.1566412 1.37524414 78.26245117 C-1.07781469 78.29574326 -3.53095091 78.3237617 -5.98413086 78.34643555 C-9.50668378 78.37990229 -13.02852465 78.43221515 -16.55078125 78.48828125 C-18.20089958 78.49786613 -18.20089958 78.49786613 -19.88435364 78.50764465 C-20.90518539 78.52743881 -21.92601715 78.54723297 -22.9777832 78.56762695 C-23.87713089 78.57873001 -24.77647858 78.58983307 -25.70307922 78.60127258 C-28.45820141 79.07954017 -29.30573591 79.81933723 -31 82 C-32.22249927 84.39413249 -32.22249927 84.39413249 -33.26171875 87.10546875 C-33.65810547 88.08837891 -34.05449219 89.07128906 -34.46289062 90.08398438 C-34.86701172 91.10814453 -35.27113281 92.13230469 -35.6875 93.1875 C-36.10322266 94.22326172 -36.51894531 95.25902344 -36.94726562 96.32617188 C-37.97173357 98.88145399 -38.98899844 101.4393667 -40 104 C-43.3 104 -46.6 104 -50 104 C-49.26816893 101.07267573 -48.54161708 98.73481147 -47.36328125 96.015625 C-46.87263184 94.87154175 -46.87263184 94.87154175 -46.37207031 93.7043457 C-45.84758301 92.48944458 -45.84758301 92.48944458 -45.3125 91.25 C-42.63552471 84.98869188 -40.08701272 78.7085348 -37.75 72.3125 C-36.10805604 67.82650353 -34.35699383 63.53477598 -32.1015625 59.32177734 C-30.67093306 56.30642141 -29.56034081 53.19204947 -28.421875 50.05859375 C-25.01659294 40.84410822 -21.23688966 31.79727314 -17.39404297 22.75805664 C-16.23063324 20.01686867 -15.07812306 17.27124682 -13.92578125 14.52539062 C-13.18554854 12.77836913 -12.44468766 11.03161363 -11.703125 9.28515625 C-11.36041565 8.46555923 -11.0177063 7.64596222 -10.66461182 6.80152893 C-7.91955295 0.3921551 -6.84601664 -0.14882645 0 0 Z " fill="#E55342" transform="translate(234,719)"/>
<path d="M0 0 C4.76596485 9.11482694 8.76571177 18.4146474 12.625 27.9375 C13.23670877 29.43673348 13.84894109 30.93575344 14.46166992 32.43457031 C15.70735903 35.48224843 16.9511719 38.53068195 18.19384766 41.57958984 C20.87379442 48.1472737 23.59445753 54.69801744 26.3125 61.25 C27.75236289 64.72990673 29.19138467 68.21016046 30.63037109 71.69042969 C31.53828539 73.88431316 32.44745089 76.07767928 33.35791016 78.27050781 C34.61708575 81.30391268 35.87157025 84.33921732 37.125 87.375 C37.49149658 88.25446289 37.85799316 89.13392578 38.2355957 90.04003906 C40.13120081 94.64526839 41.73993991 99.1805949 43 104 C35.45318694 104.37115474 35.45318694 104.37115474 33.51367188 102.78271484 C31.73891677 100.69251133 30.80934934 98.70711137 29.73828125 96.18359375 C29.34189453 95.25482422 28.94550781 94.32605469 28.53710938 93.36914062 C28.13298828 92.40169922 27.72886719 91.43425781 27.3125 90.4375 C26.89677734 89.46619141 26.48105469 88.49488281 26.05273438 87.49414062 C23 80.28086515 23 80.28086515 23 78 C15.79140993 78.06688175 8.58336729 78.1566412 1.37524414 78.26245117 C-1.07781469 78.29574326 -3.53095091 78.3237617 -5.98413086 78.34643555 C-9.50668378 78.37990229 -13.02852465 78.43221515 -16.55078125 78.48828125 C-18.20089958 78.49786613 -18.20089958 78.49786613 -19.88435364 78.50764465 C-20.90518539 78.52743881 -21.92601715 78.54723297 -22.9777832 78.56762695 C-23.87713089 78.57873001 -24.77647858 78.58983307 -25.70307922 78.60127258 C-28.45820141 79.07954017 -29.30573591 79.81933723 -31 82 C-32.22249927 84.39413249 -32.22249927 84.39413249 -33.26171875 87.10546875 C-33.65810547 88.08837891 -34.05449219 89.07128906 -34.46289062 90.08398438 C-34.86701172 91.10814453 -35.27113281 92.13230469 -35.6875 93.1875 C-36.10322266 94.22326172 -36.51894531 95.25902344 -36.94726562 96.32617188 C-37.97173357 98.88145399 -38.98899844 101.4393667 -40 104 C-42.97 104 -45.94 104 -49 104 C-49.33 103.34 -49.66 102.68 -50 102 C-48.94079171 99.08243061 -47.80780134 96.26563328 -46.58203125 93.41796875 C-46.02942375 92.10855568 -46.02942375 92.10855568 -45.46565247 90.77268982 C-44.25494629 87.90793431 -43.03364019 85.04782143 -41.8125 82.1875 C-40.97553403 80.21114114 -40.13943766 78.23441378 -39.30419922 76.25732422 C-37.63834617 72.31506429 -35.96944039 68.3741202 -34.29833984 64.43408203 C-31.36705842 57.51414101 -28.48941323 50.57286173 -25.625 43.625 C-25.16150146 42.50536865 -24.69800293 41.3857373 -24.22045898 40.23217773 C-21.97150979 34.79692141 -19.73536313 29.3567764 -17.52078247 23.90744019 C-16.41080984 21.17845655 -15.29584473 18.45152644 -14.18035889 15.72479248 C-13.64792158 14.4192215 -13.1179695 13.11263395 -12.59063721 11.80499268 C-11.86595924 10.00816609 -11.13242228 8.21491998 -10.3984375 6.421875 C-9.98255371 5.39674805 -9.56666992 4.37162109 -9.13818359 3.31542969 C-7.0797338 -0.87211598 -4.27509975 -0.09293695 0 0 Z " fill="#E55342" transform="translate(1007,719)"/>
<path d="M0 0 C3.13720703 0.62646484 3.13720703 0.62646484 5.73925781 3.55371094 C6.62527551 4.90519342 7.48828461 6.27193295 8.33251953 7.64990234 C8.80249863 8.3787262 9.27247772 9.10755005 9.75669861 9.85845947 C11.27833449 12.22745537 12.76997673 14.61386057 14.26220703 17.00146484 C15.29708807 18.6231169 16.33411818 20.2433995 17.37329102 21.86230469 C19.40300601 25.02854725 21.42302742 28.20060161 23.43457031 31.37841797 C26.61207496 36.3884766 29.88411996 41.33188349 33.19970703 46.25146484 C34.04505303 47.51428898 34.89012581 48.77729607 35.73486328 50.04052734 C36.11916504 50.61061523 36.5034668 51.18070313 36.89941406 51.76806641 C37.83515868 53.17297529 38.75533962 54.58826732 39.66796875 56.00830078 C40.45518311 57.22308105 40.45518311 57.22308105 41.25830078 58.46240234 C41.97457642 59.58074463 41.97457642 59.58074463 42.70532227 60.72167969 C44.16783672 62.886501 44.16783672 62.886501 47.13720703 64.62646484 C51.74672932 58.43653491 56.13094735 52.17888634 60.22705078 45.63818359 C62.45851527 42.11986229 64.75872083 38.65200317 67.07470703 35.18896484 C67.50235352 34.54950928 67.93 33.91005371 68.37060547 33.2512207 C69.22168792 31.97960529 70.07308295 30.70819903 70.92480469 29.43701172 C72.70817006 26.77381445 74.48511391 24.1063502 76.26220703 21.43896484 C76.89771484 20.48763672 77.53322266 19.53630859 78.18798828 18.55615234 C79.5674971 16.48274229 80.93912639 14.40407965 82.30517578 12.32177734 C83.01287109 11.24669922 83.72056641 10.17162109 84.44970703 9.06396484 C85.08521484 8.09330078 85.72072266 7.12263672 86.37548828 6.12255859 C87.86244827 4.01575719 89.12640243 2.23083021 91.13720703 0.62646484 C94.32470703 0.43896484 94.32470703 0.43896484 97.13720703 0.62646484 C98.28416508 2.92038094 98.26059355 4.18983634 98.25746155 6.73928833 C98.25952354 8.03077789 98.25952354 8.03077789 98.2616272 9.34835815 C98.25623428 10.76823532 98.25623428 10.76823532 98.25073242 12.21679688 C98.25087845 13.21195313 98.25102448 14.20710937 98.25117493 15.23242188 C98.25047634 18.53306228 98.24268647 21.83364676 98.23486328 25.13427734 C98.23299891 27.41828378 98.2315751 29.70229062 98.23057556 31.98629761 C98.2267519 38.00658262 98.21692289 44.02684363 98.20587158 50.04711914 C98.19565422 56.18684565 98.19107724 62.32657604 98.18603516 68.46630859 C98.17530051 80.51970458 98.15822588 92.57308272 98.13720703 104.62646484 C91.98486328 104.72412109 91.98486328 104.72412109 90.13720703 104.62646484 C88.39428526 102.88354308 89.017404 100.62022989 89.01278687 98.29821777 C89.01817978 97.15346985 89.01817978 97.15346985 89.02368164 95.9855957 C89.02353561 95.18565689 89.02338959 94.38571808 89.02323914 93.5615387 C89.02393848 90.9047682 89.03173185 88.24806692 89.03955078 85.59130859 C89.04141489 83.75427794 89.04283882 81.91724678 89.0438385 80.08021545 C89.04766428 75.23536822 89.05749507 70.39055077 89.06854248 65.54571533 C89.07875531 60.60583906 89.08333585 55.665958 89.08837891 50.72607422 C89.09911729 41.02619131 89.11619443 31.32633055 89.13720703 21.62646484 C85.6493504 25.00505986 82.97164981 28.62308438 80.32080078 32.67333984 C79.86423599 33.36220276 79.4076712 34.05106567 78.93727112 34.76080322 C77.47866781 36.96314174 76.02638931 39.16955955 74.57470703 41.37646484 C72.6796917 44.24766092 70.78215294 47.11717996 68.88330078 49.98583984 C68.18000137 51.04853088 68.18000137 51.04853088 67.4624939 52.13269043 C64.0296204 57.30838707 60.55644004 62.45525611 57.04736328 67.57958984 C56.35192665 68.59904694 56.35192665 68.59904694 55.6424408 69.63909912 C53.92401459 72.13756934 52.28641155 74.47726032 50.13720703 76.62646484 C46.72327185 77.0816562 44.81051866 77.04310882 41.85400391 75.21362305 C38.00251747 71.5459198 35.35248341 67.31229203 32.48095703 62.85693359 C31.85620483 61.90256912 31.23145264 60.94820465 30.58776855 59.96492004 C28.59639788 56.91964091 26.61647459 53.86712107 24.63720703 50.81396484 C22.6555989 47.77310498 20.67166444 44.73377893 18.68664551 41.69514465 C17.45424064 39.80687496 16.22421539 37.91704935 14.99694824 36.0254364 C11.81941945 31.13890519 8.56644179 26.34005569 5.13720703 21.62646484 C4.20757135 40.15591135 4.01310207 58.63889607 4.07470703 77.18896484 C4.08032824 79.86930189 4.08436974 82.54964058 4.08837891 85.22998047 C4.09922319 91.69549615 4.11581371 98.16097589 4.13720703 104.62646484 C2.65813811 104.65335701 1.1789322 104.67281106 -0.30029297 104.68896484 C-1.53585937 104.70636719 -1.53585937 104.70636719 -2.79638672 104.72412109 C-4.86279297 104.62646484 -4.86279297 104.62646484 -5.86279297 103.62646484 C-5.97413055 100.53748814 -6.02019888 97.47066549 -6.02392578 94.38085938 C-6.02889069 93.41017517 -6.03385559 92.43949097 -6.03897095 91.43939209 C-6.05363421 88.21268009 -6.06040144 84.98601725 -6.06591797 81.75927734 C-6.07166594 79.52586871 -6.07742371 77.2924601 -6.08319092 75.05905151 C-6.09371273 70.36976897 -6.09954768 65.68050363 -6.10302734 60.99121094 C-6.10851491 54.97277156 -6.13254372 48.95455811 -6.1609993 42.93618965 C-6.17959266 38.32090585 -6.18482951 33.70567683 -6.18636322 29.09035873 C-6.18939769 26.8711206 -6.19745276 24.65188361 -6.2105484 22.43268204 C-6.22754008 19.33189804 -6.22574545 16.2316706 -6.21923828 13.13085938 C-6.22845306 12.2081424 -6.23766785 11.28542542 -6.24716187 10.33474731 C-6.24159271 9.49065308 -6.23602356 8.64655884 -6.23028564 7.77688599 C-6.2317522 7.0435158 -6.23321877 6.31014561 -6.23472977 5.55455208 C-5.52100808 1.8546824 -3.51885113 0.77003002 0 0 Z " fill="#E55342" transform="translate(501.86279296875,718.37353515625)"/>
<path d="M0 0 C1.59536101 -0.01173486 1.59536101 -0.01173486 3.22295153 -0.02370679 C4.96647168 -0.01366855 4.96647168 -0.01366855 6.74521446 -0.00342751 C7.98468625 -0.00810748 9.22415805 -0.01278745 10.50118959 -0.01760924 C13.93895156 -0.02750827 17.37622219 -0.02394123 20.81395435 -0.01465058 C24.52222387 -0.00786769 28.2304502 -0.01833744 31.93871117 -0.02659035 C39.20155061 -0.03993723 46.4642971 -0.03704594 53.7271402 -0.02835242 C59.62803331 -0.02158108 65.52890034 -0.02065677 71.42979622 -0.02392387 C72.26918706 -0.02438357 73.10857789 -0.02484327 73.97340482 -0.0253169 C75.67851096 -0.02627606 77.3836171 -0.0272487 79.08872323 -0.02823468 C95.08050933 -0.0367911 111.07224386 -0.02694994 127.06402151 -0.01083358 C140.79399047 0.00257473 154.52388335 0.00023778 168.25385094 -0.01358986 C184.1909728 -0.0296328 200.12804947 -0.03597226 216.06517828 -0.02675307 C217.76344895 -0.0257974 219.46171963 -0.02485429 221.15999031 -0.02392387 C222.41343281 -0.02322963 222.41343281 -0.02322963 223.69219739 -0.02252137 C229.58892561 -0.01992798 235.48562522 -0.02430987 241.38234901 -0.03136253 C248.56413128 -0.03976324 255.74581515 -0.03752741 262.92758609 -0.0215203 C266.59378002 -0.01361898 270.25980968 -0.0105775 273.9260025 -0.02046776 C277.89439782 -0.03101167 281.86252227 -0.01844907 285.83090782 -0.00342751 C286.99771603 -0.01011967 288.16452424 -0.01681184 289.36669028 -0.02370679 C290.42504879 -0.01588355 291.4834073 -0.00806031 292.57383728 0 C293.49042984 0.00048706 294.40702239 0.00097411 295.35139048 0.00147593 C298.12027559 0.45228692 299.01628651 1.13730331 300.6610775 3.37752342 C300.9735775 5.94002342 300.9735775 5.94002342 300.6610775 8.37752342 C298.10584665 10.93275427 297.19074794 10.62796375 293.64444637 10.6292057 C292.0423698 10.63702895 292.0423698 10.63702895 290.40792805 10.64501023 C289.22516991 10.64054879 288.04241178 10.63608735 286.82381248 10.63149071 C285.57465331 10.63461069 284.32549414 10.63773067 283.03848165 10.6409452 C279.55987442 10.64932979 276.08137628 10.64515141 272.60276854 10.63897276 C268.85560069 10.63446412 265.10845214 10.64142413 261.36128807 10.6469326 C254.01583728 10.65584556 246.67042726 10.65389608 239.32497484 10.64810732 C233.35679464 10.64359795 227.3886259 10.64297478 221.42044449 10.64515495 C220.1482594 10.64561465 220.1482594 10.64561465 218.85037361 10.64608364 C217.12763186 10.64672306 215.40489013 10.64737149 213.68214839 10.64802882 C197.51155189 10.65373778 181.34097802 10.64716555 165.17038523 10.63642809 C151.28519123 10.62749368 137.40003066 10.62904262 123.51483727 10.63826561 C107.4052481 10.64896105 91.29567881 10.6531867 75.1860866 10.64704108 C73.46923316 10.64640396 71.75237972 10.64577522 70.03552628 10.64515495 C69.19072065 10.6448464 68.34591502 10.64453785 67.47550922 10.64421995 C61.51269782 10.64249071 55.54989899 10.64541307 49.58708954 10.65011406 C42.32291 10.65571491 35.05877369 10.65422333 27.79459912 10.64355257 C24.08592636 10.63828484 20.37732577 10.63625773 16.66865349 10.64285088 C12.6541478 10.64987993 8.63982543 10.64150508 4.62532616 10.63149071 C2.85453503 10.63818287 2.85453503 10.63818287 1.04797035 10.64501023 C-0.02268844 10.63979474 -1.09334723 10.63457924 -2.19645023 10.6292057 C-3.1237823 10.628881 -4.05111436 10.62855629 -5.00654739 10.62822175 C-7.3389225 10.37752342 -7.3389225 10.37752342 -10.3389225 8.37752342 C-10.8389225 5.94002342 -10.8389225 5.94002342 -10.3389225 3.37752342 C-6.84719727 0.77718379 -4.31500702 0.00229209 0 0 Z " fill="#00803B" transform="translate(76.33892250061035,888.6224765777588)"/>
<path d="M0 0 C0.99 0 1.98 0 3 0 C1.8037163 10.13116784 0.10412262 19.98782092 -2.1875 29.9375 C-2.33895477 30.6009845 -2.49040955 31.26446899 -2.64645386 31.94805908 C-5.58552279 44.78593056 -9.012176 57.44679612 -13 70 C-13.36859131 71.16958252 -13.36859131 71.16958252 -13.74462891 72.36279297 C-18.48941171 87.19552386 -24.24037178 103.46068857 -35 115 C-35.51304687 115.61359375 -36.02609375 116.2271875 -36.5546875 116.859375 C-38.92983324 119.54218211 -40.5163985 120.90130582 -44.0625 121.625 C-47.72484742 120.84577714 -49.3957725 119.67656715 -52 117 C-58.85823182 103.96935954 -54.00664732 87.23055389 -50.0625 74 C-44.58716997 58.28530656 -36.03302009 43.23428674 -26 30 C-25.24589844 28.96359375 -24.49179687 27.9271875 -23.71484375 26.859375 C-16.60753255 17.21415534 -8.46545104 8.46545104 0 0 Z " fill="#FDFDFD" transform="translate(1000,1051)"/>
<path d="M0 0 C8.43798054 6.75382149 11.37343465 14.55573828 13 25 C5.25 25.125 5.25 25.125 3 24 C2.32421875 22.1796875 2.32421875 22.1796875 1.6875 19.875 C-0.08293955 14.38925382 -2.0428247 9.7689285 -7.1484375 6.71484375 C-18.09297704 1.64254054 -27.63297304 2.23935348 -39.01953125 5.734375 C-43.39784428 7.59358001 -46.23600843 9.77215641 -48.75 13.8125 C-50.74310575 18.89491967 -51.77666036 22.88887175 -49.6875 28.0625 C-44.91234195 36.15842696 -35.45880399 38.75542733 -26.87353516 41.01586914 C-25.67776855 41.32000732 -24.48200195 41.62414551 -23.25 41.9375 C4.64257018 49.49952602 4.64257018 49.49952602 11 60 C11.61875 61.010625 12.2375 62.02125 12.875 63.0625 C15.29603349 69.53803537 15.10601025 77.42673612 13.0859375 83.953125 C9.23134754 92.25914466 3.75424556 96.01552038 -4.6328125 99.203125 C-15.91565707 103.0013103 -31.52718609 102.80901302 -42.51953125 98.3359375 C-51.81360548 93.33031012 -57.30961938 87.14439998 -61.36328125 77.5 C-62.09905656 74.61106626 -61.84213633 72.83666976 -61 70 C-60 69 -60 69 -56.9375 68.9375 C-55.968125 68.958125 -54.99875 68.97875 -54 69 C-53.72027344 69.79664063 -53.44054687 70.59328125 -53.15234375 71.4140625 C-49.80557654 80.25985879 -46.46813592 84.9651458 -37.98046875 89.12109375 C-32.51778984 91.48643483 -27.44911294 91.6285544 -21.5625 91.5625 C-20.58990234 91.58634766 -19.61730469 91.61019531 -18.61523438 91.63476562 C-11.47624564 91.62045903 -5.94042844 90.03906423 0 86 C3.3883441 82.37082167 4.24647925 78.91382865 4.5 74 C4.26493537 69.15913784 3.28268062 65.62675763 0 62 C-7.51772284 55.66742405 -17.49717047 53.39432019 -26.76220703 50.83813477 C-49.95211068 44.4149156 -49.95211068 44.4149156 -58 34 C-61.42240469 27.26776973 -61.26872707 18.98100579 -59.0078125 11.88671875 C-55.12882146 3.96437265 -49.50912522 -0.59083709 -41.5078125 -4.08984375 C-28.44621574 -8.39739162 -11.68435828 -7.5163908 0 0 Z " fill="#E55342" transform="translate(738,724)"/>
<path d="M0 0 C1.09441406 0.00326294 1.09441406 0.00326294 2.2109375 0.0065918 C4.40156567 0.0097144 6.5907927 -0.01356328 8.78125 -0.0390625 C26.54801979 -0.12476736 26.54801979 -0.12476736 33.59375 5.40820312 C34.2021875 6.16359375 34.810625 6.91898438 35.4375 7.69726562 C36.0665625 8.4475 36.695625 9.19773437 37.34375 9.97070312 C42.17570412 17.10020405 41.61166992 25.05525694 40.9375 33.32226562 C39.22761271 39.35544748 34.32743196 43.29982214 29.09765625 46.41992188 C19.33788834 50.49678695 5.70541736 48.48108056 -4.6875 47.88476562 C-5.39938477 47.84561035 -6.11126953 47.80645508 -6.84472656 47.76611328 C-11.9423714 47.44239423 -11.9423714 47.44239423 -13.0625 46.32226562 C-13.16562037 44.9516697 -13.20098953 43.57586904 -13.20776367 42.20141602 C-13.21414352 41.32703384 -13.22052338 40.45265167 -13.22709656 39.55177307 C-13.22820938 38.60076218 -13.2293222 37.64975128 -13.23046875 36.66992188 C-13.23379715 35.69945419 -13.23712555 34.72898651 -13.24055481 33.72911072 C-13.2456283 31.67203243 -13.24796301 29.61494587 -13.24780273 27.55786133 C-13.24998826 24.40171819 -13.26813691 21.24592492 -13.28710938 18.08984375 C-13.29004333 16.09570433 -13.29202811 14.10156323 -13.29296875 12.10742188 C-13.30015427 11.15843521 -13.30733978 10.20944855 -13.31474304 9.23170471 C-13.31166641 8.35417038 -13.30858978 7.47663605 -13.30541992 6.57250977 C-13.30684494 5.79831192 -13.30826996 5.02411407 -13.30973816 4.22645569 C-12.51343114 -1.90657779 -4.64673913 0.01839593 0 0 Z " fill="#FDFDFD" transform="translate(369.0625,727.677734375)"/>
<path d="M0 0 C2.3125 0.5 2.3125 0.5 4.3125 3.5 C8.12202813 25.07395929 -9.11151715 52.42510338 -20.34765625 69.5703125 C-22.63546633 73.21478506 -23.9007533 76.69022298 -25 80.875 C-25.20036865 81.63731934 -25.4007373 82.39963867 -25.60717773 83.18505859 C-26.32177749 85.95178111 -27.00677826 88.72474981 -27.6875 91.5 C-27.95369141 92.57314453 -28.21988281 93.64628906 -28.49414062 94.75195312 C-37.52021706 131.40638091 -45.32570679 168.41864928 -52.375 205.5 C-52.54153076 206.37422607 -52.70806152 207.24845215 -52.87963867 208.14916992 C-53.34431717 210.59871946 -53.80436308 213.04907361 -54.26171875 215.5 C-54.4592701 216.54927673 -54.4592701 216.54927673 -54.66081238 217.61975098 C-55.02111619 219.57659215 -55.35465881 221.538301 -55.6875 223.5 C-55.81299225 224.21542969 -55.9384845 224.93085937 -56.06777954 225.66796875 C-56.84513651 230.34185704 -56.84513651 230.34185704 -54.6875 234.5 C-55.00140825 238.47617113 -56.51995047 241.20155506 -58.6875 244.5 C-63.5625 243.625 -63.5625 243.625 -64.6875 242.5 C-65.32529193 235.17491204 -64.16341559 228.11179569 -62.8125 220.9375 C-62.48475586 219.1599231 -62.48475586 219.1599231 -62.15039062 217.34643555 C-61.35226485 213.05982312 -60.5223964 208.77958304 -59.6875 204.5 C-59.52487671 203.66496948 -59.36225342 202.82993896 -59.19470215 201.96960449 C-52.63595129 168.38141432 -45.17900628 135.01305076 -37.42633057 101.68249512 C-36.72929627 98.68003642 -36.03625237 95.67669544 -35.34521484 92.67285156 C-31.00032152 73.79120219 -26.59470266 54.96862072 -20.6875 36.5 C-20.43403809 35.70384277 -20.18057617 34.90768555 -19.91943359 34.08740234 C-9.47483467 1.76275994 -9.47483467 1.76275994 0 0 Z " fill="#E55342" transform="translate(1166.6875,874.5)"/>
<path d="M0 0 C0.77419785 0.00142502 1.54839569 0.00285004 2.34605408 0.00431824 C3.66235558 -0.00029671 3.66235558 -0.00029671 5.00524902 -0.00500488 C6.42872902 0.00577339 6.42872902 0.00577339 7.88096619 0.01676941 C8.85239059 0.01722763 9.823815 0.01768585 10.82467651 0.01815796 C12.87999186 0.02118192 14.93530489 0.0290725 16.99058533 0.04142761 C20.14878899 0.05968312 23.30669966 0.06193735 26.46495056 0.06169128 C28.45779166 0.06660634 30.45063075 0.07243461 32.44346619 0.07926941 C33.86998253 0.08093864 33.86998253 0.08093864 35.32531738 0.0826416 C36.19969955 0.08902145 37.07408173 0.09540131 37.97496033 0.10197449 C39.13506371 0.10769218 39.13506371 0.10769218 40.31860352 0.11352539 C42.09580994 0.24723816 42.09580994 0.24723816 43.09580994 1.24723816 C43.18868254 2.65948862 43.21327765 4.0763275 43.20933533 5.49162292 C43.2092598 6.39248123 43.20918427 7.29333954 43.20910645 8.22149658 C43.20394516 9.20065536 43.19878387 10.17981415 43.19346619 11.18864441 C43.19205124 12.18605148 43.19063629 13.18345856 43.18917847 14.21109009 C43.18356108 17.41066939 43.17100565 20.61017985 43.15830994 23.80973816 C43.15329718 25.97314861 43.14873388 28.13656015 43.14463806 30.29997253 C43.13358601 35.61575141 43.11683097 40.93148987 43.09580994 46.24723816 C36.72377401 46.29783446 30.35178963 46.33292773 23.979599 46.35710144 C21.81063399 46.36717605 19.64168262 46.38083614 17.47276306 46.39811707 C14.36009868 46.42230139 11.24761343 46.43370648 8.13487244 46.44255066 C7.16087494 46.45287323 6.18687744 46.4631958 5.18336487 46.47383118 C4.28258209 46.47398224 3.38179932 46.4741333 2.45372009 46.47428894 C1.26125168 46.48095078 1.26125168 46.48095078 0.04469299 46.48774719 C-1.90419006 46.24723816 -1.90419006 46.24723816 -3.90419006 44.24723816 C-4.15815735 42.42570496 -4.15815735 42.42570496 -4.16297913 40.19645691 C-4.16928345 39.36219177 -4.17558777 38.52792664 -4.18208313 37.66838074 C-4.17803467 36.76627869 -4.17398621 35.86417664 -4.16981506 34.93473816 C-4.17172852 34.01007751 -4.17364197 33.08541687 -4.1756134 32.13273621 C-4.17697572 30.17578357 -4.17327602 28.21882192 -4.16493225 26.2618866 C-4.15423341 23.25940226 -4.16482597 20.25751629 -4.17762756 17.25505066 C-4.17630598 15.35661183 -4.1737436 13.45817338 -4.16981506 11.55973816 C-4.17386353 10.65763611 -4.17791199 9.75553406 -4.18208313 8.82609558 C-4.17577881 7.99183044 -4.16947449 7.15756531 -4.16297913 6.29801941 C-4.16138794 5.56236755 -4.15979675 4.8267157 -4.15815735 4.06877136 C-3.77999245 1.3564538 -2.69822665 0.35033509 0 0 Z " fill="#00803B" transform="translate(577.9041900634766,454.7527618408203)"/>
<path d="M0 0 C0.87760986 -0.00315216 1.75521973 -0.00630432 2.65942383 -0.009552 C3.61357178 -0.00752777 4.56771973 -0.00550354 5.55078125 -0.00341797 C6.52362061 -0.00437469 7.49645996 -0.00533142 8.4987793 -0.00631714 C10.56005925 -0.00699905 12.62134133 -0.00514399 14.68261719 -0.00097656 C17.84965813 0.00437153 21.01655725 -0.00092119 24.18359375 -0.00732422 C26.1809899 -0.00666344 28.17838596 -0.00538228 30.17578125 -0.00341797 C31.1299292 -0.0054422 32.08407715 -0.00746643 33.06713867 -0.009552 C34.38355347 -0.00482376 34.38355347 -0.00482376 35.7265625 0 C36.50298096 0.00079559 37.27939941 0.00159119 38.0793457 0.00241089 C39.86328125 0.12939453 39.86328125 0.12939453 40.86328125 1.12939453 C40.95615385 2.54164499 40.98074897 3.95848388 40.97680664 5.3737793 C40.97673111 6.2746376 40.97665558 7.17549591 40.97657776 8.10365295 C40.97141647 9.08281174 40.96625519 10.06197052 40.9609375 11.07080078 C40.95952255 12.06820786 40.9581076 13.06561493 40.95664978 14.09324646 C40.95103239 17.29282577 40.93847696 20.49233622 40.92578125 23.69189453 C40.92076849 25.85530498 40.9162052 28.01871653 40.91210938 30.18212891 C40.90105732 35.49790778 40.88430229 40.81364624 40.86328125 46.12939453 C34.49124532 46.17999083 28.11926095 46.2150841 21.74707031 46.23925781 C19.57810531 46.24933242 17.40915394 46.26299251 15.24023438 46.28027344 C12.12756999 46.30445776 9.01508474 46.31586285 5.90234375 46.32470703 C4.92834625 46.3350296 3.95434875 46.34535217 2.95083618 46.35598755 C2.05005341 46.35613861 1.14927063 46.35628967 0.22119141 46.35644531 C-0.97127701 46.36310715 -0.97127701 46.36310715 -2.18783569 46.36990356 C-4.13671875 46.12939453 -4.13671875 46.12939453 -6.13671875 44.12939453 C-6.34599304 42.26316833 -6.34599304 42.26316833 -6.2878418 39.97094727 C-6.27089767 39.11343369 -6.25395355 38.2559201 -6.23649597 37.37242126 C-6.20743668 36.44530838 -6.17837738 35.5181955 -6.1484375 34.56298828 C-6.12578323 33.61375992 -6.10312897 32.66453156 -6.07978821 31.6865387 C-6.02978405 29.67818812 -5.9748119 27.66995607 -5.9152832 25.66186523 C-5.82449721 22.57635844 -5.7498336 19.49077944 -5.67773438 16.40478516 C-5.627252 14.45749467 -5.57585097 12.51022774 -5.5234375 10.56298828 C-5.5004509 9.63385117 -5.47746429 8.70471405 -5.45378113 7.74742126 C-5.42738052 6.89305984 -5.40097992 6.03869843 -5.3737793 5.15844727 C-5.35220261 4.40280991 -5.33062592 3.64717255 -5.30839539 2.86863708 C-4.96859839 -0.57381969 -2.99168572 0.00306557 0 0 Z " fill="#00803B" transform="translate(580.13671875,385.87060546875)"/>
<path d="M0 0 C0.75643295 0.00142502 1.51286591 0.00285004 2.29222107 0.00431824 C3.57849144 -0.00029671 3.57849144 -0.00029671 4.89074707 -0.00500488 C5.81785995 0.00218063 6.74497284 0.00936615 7.70018005 0.01676941 C8.64940842 0.01722763 9.59863678 0.01768585 10.57662964 0.01815796 C12.58486683 0.02118178 14.59310164 0.02907192 16.6013031 0.04142761 C19.68708029 0.05968377 22.77255763 0.06193734 25.85838318 0.06169128 C27.80565142 0.06660633 29.75291761 0.07243459 31.70018005 0.07926941 C33.09388573 0.08093864 33.09388573 0.08093864 34.51574707 0.0826416 C35.37010849 0.08902145 36.22446991 0.09540131 37.10472107 0.10197449 C37.86035843 0.10578629 38.61599579 0.10959808 39.39453125 0.11352539 C41.1337738 0.24723816 41.1337738 0.24723816 42.1337738 1.24723816 C42.22664641 2.65948862 42.25124152 4.0763275 42.24729919 5.49162292 C42.24722366 6.39248123 42.24714813 7.29333954 42.24707031 8.22149658 C42.24190903 9.20065536 42.23674774 10.17981415 42.23143005 11.18864441 C42.23001511 12.18605148 42.22860016 13.18345856 42.22714233 14.21109009 C42.22152495 17.41066939 42.20896951 20.61017985 42.1962738 23.80973816 C42.19126104 25.97314861 42.18669775 28.13656015 42.18260193 30.29997253 C42.17154987 35.61575141 42.15479484 40.93148987 42.1337738 46.24723816 C35.74340149 46.27250878 29.35304198 46.29007133 22.96263123 46.3021698 C20.78684508 46.30721124 18.61106234 46.31404423 16.43528748 46.32267761 C13.31524314 46.33475154 10.19524342 46.34046821 7.07518005 46.34489441 C5.60644188 46.35263634 5.60644188 46.35263634 4.10803223 46.36053467 C3.20717392 46.3606102 2.30631561 46.36068573 1.37815857 46.36076355 C0.58095901 46.36298416 -0.21624054 46.36520477 -1.03759766 46.36749268 C-2.8662262 46.24723816 -2.8662262 46.24723816 -3.8662262 45.24723816 C-3.96924034 43.907302 -4.00471073 42.56205851 -4.01148987 41.21818542 C-4.01786972 40.36382401 -4.02424957 39.50946259 -4.03082275 38.62921143 C-4.03193558 37.70007431 -4.0330484 36.77093719 -4.03419495 35.81364441 C-4.03752335 34.86537277 -4.04085175 33.91710114 -4.04428101 32.94009399 C-4.04935439 30.93009427 -4.05168921 28.92008608 -4.05152893 26.91007996 C-4.05371441 23.82636197 -4.07186303 20.7430021 -4.09083557 17.65934753 C-4.09376954 15.71078106 -4.09575431 13.76221287 -4.09669495 11.81364441 C-4.10388046 10.88653152 -4.11106598 9.95941864 -4.11846924 9.00421143 C-4.11539261 8.14669785 -4.11231598 7.28918427 -4.10914612 6.40568542 C-4.11057114 5.64925247 -4.11199615 4.89281952 -4.11346436 4.11346436 C-3.75437684 1.40296639 -2.71049797 0.35908752 0 0 Z " fill="#00803B" transform="translate(645.8662261962891,454.7527618408203)"/>
<path d="M0 0 C0.75643295 0.00142502 1.51286591 0.00285004 2.29222107 0.00431824 C3.57849144 -0.00029671 3.57849144 -0.00029671 4.89074707 -0.00500488 C5.81785995 0.00218063 6.74497284 0.00936615 7.70018005 0.01676941 C8.64940842 0.01722763 9.59863678 0.01768585 10.57662964 0.01815796 C12.58486683 0.02118178 14.59310164 0.02907192 16.6013031 0.04142761 C19.68708029 0.05968377 22.77255763 0.06193734 25.85838318 0.06169128 C27.80565142 0.06660633 29.75291761 0.07243459 31.70018005 0.07926941 C33.09388573 0.08093864 33.09388573 0.08093864 34.51574707 0.0826416 C35.37010849 0.08902145 36.22446991 0.09540131 37.10472107 0.10197449 C37.86035843 0.10578629 38.61599579 0.10959808 39.39453125 0.11352539 C41.1337738 0.24723816 41.1337738 0.24723816 42.1337738 1.24723816 C42.22664641 2.65948862 42.25124152 4.0763275 42.24729919 5.49162292 C42.24722366 6.39248123 42.24714813 7.29333954 42.24707031 8.22149658 C42.24190903 9.20065536 42.23674774 10.17981415 42.23143005 11.18864441 C42.23001511 12.18605148 42.22860016 13.18345856 42.22714233 14.21109009 C42.22152495 17.41066939 42.20896951 20.61017985 42.1962738 23.80973816 C42.19126104 25.97314861 42.18669775 28.13656015 42.18260193 30.29997253 C42.17154987 35.61575141 42.15479484 40.93148987 42.1337738 46.24723816 C35.90412765 46.27253767 29.67449468 46.29008365 23.44480896 46.3021698 C21.32436122 46.30720688 19.20391696 46.31403675 17.08348083 46.32267761 C14.04034059 46.3347705 10.99724615 46.34047263 7.9540863 46.34489441 C7.00196259 46.35005569 6.04983887 46.35521698 5.06886292 46.36053467 C4.18810089 46.3606102 3.30733887 46.36068573 2.39988708 46.36076355 C1.62267303 46.36298416 0.84545898 46.36520477 0.04469299 46.36749268 C-1.8662262 46.24723816 -1.8662262 46.24723816 -3.8662262 45.24723816 C-3.91556773 39.16001069 -3.95191786 33.07289896 -3.97608948 26.98551941 C-3.98616331 24.91355869 -3.99982286 22.84161223 -4.0171051 20.7696991 C-4.04129284 17.79603052 -4.05269528 14.82254946 -4.0615387 11.84880066 C-4.07186127 10.91855072 -4.08218384 9.98830078 -4.09281921 9.02986145 C-4.09297028 8.16912018 -4.09312134 7.30837891 -4.09327698 6.42155457 C-4.0977182 5.66210541 -4.10215942 4.90265625 -4.10673523 4.12019348 C-3.75792188 1.40382228 -2.71508989 0.35969585 0 0 Z " fill="#00803B" transform="translate(645.8662261962891,385.7527618408203)"/>
<path d="M0 0 C1.08089401 0.00022659 2.16178802 0.00045319 3.2754364 0.00068665 C4.44113663 0.0161705 5.60683685 0.03165436 6.80786133 0.04760742 C8.00220291 0.05185226 9.19654449 0.05609711 10.42707825 0.06047058 C14.24824402 0.07728658 18.06888574 0.11494524 21.88989258 0.15307617 C24.4777756 0.16811918 27.06566687 0.18180825 29.65356445 0.1940918 C36.00335316 0.22719972 42.35283543 0.27742856 48.70239258 0.34057617 C49.70239258 2.34057617 49.70239258 2.34057617 49.70239258 9.34057617 C33.86239258 9.67057617 18.02239258 10.00057617 1.70239258 10.34057617 C1.37239258 23.21057617 1.04239258 36.08057617 0.70239258 49.34057617 C5.44936523 49.43145508 5.44936523 49.43145508 10.29223633 49.52416992 C13.34361286 49.58590667 16.39495033 49.64931614 19.44628906 49.71289062 C21.57353265 49.7563104 23.70081268 49.7979801 25.828125 49.83789062 C28.87877409 49.89542324 31.92923847 49.95916584 34.97973633 50.02416992 C35.93702133 50.04088242 36.89430634 50.05759491 37.88059998 50.07481384 C38.76143753 50.09475906 39.64227509 50.11470428 40.54980469 50.13525391 C41.32923935 50.15079819 42.10867401 50.16634247 42.91172791 50.18235779 C44.70239258 50.34057617 44.70239258 50.34057617 45.70239258 51.34057617 C45.74332195 53.6735505 45.74480981 56.00762842 45.70239258 58.34057617 C44.40503174 58.36563232 43.1076709 58.39068848 41.77099609 58.41650391 C36.97580401 58.51039369 32.18076308 58.61065867 27.38574219 58.71289062 C25.30700201 58.75630951 23.22822455 58.79797929 21.14941406 58.83789062 C18.16826113 58.89542539 15.18729709 58.95916736 12.20629883 59.02416992 C10.80318199 59.04923866 10.80318199 59.04923866 9.37171936 59.07481384 C8.51090256 59.09475906 7.65008575 59.11470428 6.76318359 59.13525391 C5.62067894 59.15857033 5.62067894 59.15857033 4.45509338 59.18235779 C2.67504251 59.15436946 2.67504251 59.15436946 1.70239258 60.34057617 C1.5804145 61.72108476 1.52470359 63.10755264 1.49707031 64.49316406 C1.47712509 65.37400162 1.45717987 66.25483917 1.43663025 67.16236877 C1.41156151 68.59829628 1.41156151 68.59829628 1.38598633 70.06323242 C1.36520523 71.03844345 1.34442413 72.01365448 1.32301331 73.01841736 C1.25740845 76.14656247 1.1985823 79.2747944 1.13989258 82.40307617 C1.09671774 84.51831968 1.0531038 86.63355427 1.0090332 88.7487793 C0.90171603 93.94595205 0.79997037 99.14321194 0.70239258 104.34057617 C-5.44995117 104.43823242 -5.44995117 104.43823242 -7.29760742 104.34057617 C-9.46036471 102.17781888 -8.45511657 97.09918327 -8.45874023 94.0949707 C-8.46370514 93.1242865 -8.46867004 92.15360229 -8.4737854 91.15350342 C-8.48844866 87.92679142 -8.49521589 84.70012858 -8.50073242 81.47338867 C-8.50648039 79.23998004 -8.51223816 77.00657143 -8.51800537 74.77316284 C-8.52852719 70.0838803 -8.53436213 65.39461496 -8.5378418 60.70532227 C-8.54332936 54.68688289 -8.56735817 48.66866944 -8.59581375 42.65030098 C-8.61440711 38.03501718 -8.61964397 33.41978816 -8.62117767 28.80447006 C-8.62421214 26.58523193 -8.63226722 24.36599494 -8.64536285 22.14679337 C-8.66235453 19.04600937 -8.66055991 15.94578193 -8.65405273 12.8449707 C-8.66326752 11.92225372 -8.6724823 10.99953674 -8.68197632 10.04885864 C-8.67640717 9.2047644 -8.67083801 8.36067017 -8.6651001 7.49099731 C-8.66656666 6.75762712 -8.66803322 6.02425694 -8.66954422 5.26866341 C-7.7310571 0.40362974 -4.37987007 -0.03062846 0 0 Z " fill="#E55342" transform="translate(72.297607421875,718.659423828125)"/>
<path d="M0 0 C3.25 -0.3125 3.25 -0.3125 7 0 C10.17992295 3.39150295 12.45877795 7.25749317 14.8125 11.25 C15.59613862 12.57044045 16.38001145 13.89074191 17.1640625 15.2109375 C17.60395508 15.9544043 18.04384766 16.69787109 18.49707031 17.46386719 C21.54634609 22.60939623 24.61702304 27.74210508 27.6875 32.875 C28.31696533 33.93235352 28.94643066 34.98970703 29.5949707 36.07910156 C34.95105855 46.84620968 34.95105855 46.84620968 43 55 C43.65484375 53.86046875 44.3096875 52.7209375 44.984375 51.546875 C50.92876195 41.22740162 56.9715893 30.97353116 63.125 20.77734375 C64.99679534 17.6754577 66.85116068 14.56440913 68.6875 11.44140625 C69.10112793 10.74112305 69.51475586 10.04083984 69.94091797 9.31933594 C70.70967447 8.01641254 71.47455767 6.71119314 72.23486328 5.40332031 C74.77590939 1.1120453 74.77590939 1.1120453 77 0 C78.54613014 0.08651631 80.08909387 0.24002636 81.625 0.4375 C82.44226562 0.53933594 83.25953125 0.64117188 84.1015625 0.74609375 C84.72804688 0.82988281 85.35453125 0.91367187 86 1 C79.27105282 13.0175127 72.15450655 24.79918661 65.04931641 36.59667969 C62.24549003 41.25302228 59.44501058 45.91136857 56.64672852 50.57104492 C55.31856864 52.78261315 53.98965307 54.99372776 52.65991211 57.2043457 C52.06315674 58.19781006 51.46640137 59.19127441 50.8515625 60.21484375 C50.32385254 61.09261475 49.79614258 61.97038574 49.25244141 62.87475586 C46.79510764 67.04455907 46.7831242 70.53061339 46.68359375 75.2890625 C46.66281265 76.10748627 46.64203156 76.92591003 46.62062073 77.76913452 C46.55515188 80.38766966 46.49625274 83.00630639 46.4375 85.625 C46.39431224 87.39844807 46.35069786 89.17188581 46.30664062 90.9453125 C46.19947324 95.29677046 46.09819831 99.64833077 46 104 C39.84765625 104.09765625 39.84765625 104.09765625 38 104 C37.67 103.67 37.34 103.34 37 103 C37.03817866 100.57843693 37.13110762 98.17596145 37.24609375 95.7578125 C37.93681985 73.64026483 34.98421933 59.60373649 21.92773438 41.67626953 C19.46721659 38.26033792 17.34369515 34.70959811 15.25 31.0625 C12.79107369 26.94834313 10.29468034 22.86347561 7.7578125 18.796875 C7.19803711 17.88929443 6.63826172 16.98171387 6.06152344 16.04663086 C4.95777267 14.25726999 3.84418897 12.47392818 2.71972656 10.69750977 C2.22182617 9.88596436 1.72392578 9.07441895 1.2109375 8.23828125 C0.76024902 7.51680908 0.30956055 6.79533691 -0.15478516 6.05200195 C-1.16930567 3.58896182 -0.90423485 2.45845335 0 0 Z " fill="#E55342" transform="translate(1108,719)"/>
<path d="M0 0 C0.74985672 -0.00204437 1.49971344 -0.00408875 2.27229309 -0.00619507 C4.75127531 -0.00920375 7.22959293 0.00927344 9.70849609 0.02832031 C11.42817012 0.03137739 13.14784661 0.0332539 14.86752319 0.03399658 C18.47053509 0.03859989 22.07332351 0.05302889 25.67626953 0.07519531 C30.30473839 0.10352019 34.93303145 0.11441095 39.56157875 0.11887741 C43.11135634 0.12302476 46.66109806 0.13283577 50.21085739 0.1447525 C51.91817308 0.15046624 53.62549224 0.15522127 55.33281326 0.15901947 C57.7128233 0.16585989 60.09269122 0.17948043 62.47265625 0.1953125 C63.18435471 0.19643036 63.89605316 0.19754822 64.62931824 0.19869995 C69.49224414 0.24175586 69.49224414 0.24175586 70.60693359 1.35644531 C70.74808521 4.02703382 70.64940467 6.68076769 70.60693359 9.35644531 C69.06984741 9.39402954 69.06984741 9.39402954 67.50170898 9.43237305 C63.71283683 9.52629015 59.92415478 9.62654849 56.13549805 9.72875977 C54.49329056 9.77216828 52.8510362 9.81383889 51.20874023 9.85375977 C48.85304614 9.91131971 46.49758931 9.97505423 44.14208984 10.04003906 C43.40354263 10.05675156 42.66499542 10.07346405 41.90406799 10.09068298 C38.46392732 9.89192545 38.46392732 9.89192545 35.60693359 11.35644531 C35.48166172 14.24709767 35.42083157 17.11501318 35.40161133 20.00708008 C35.39171173 20.91430817 35.38181213 21.82153625 35.37161255 22.7562561 C35.33989764 25.77009425 35.31520081 28.7839482 35.29052734 31.79785156 C35.26996643 33.88150962 35.2489702 35.96516342 35.22755432 38.04881287 C35.1722445 43.54463263 35.12287466 49.04049057 35.07470703 54.53637695 C35.02455689 60.13984595 34.96883705 65.74325919 34.91357422 71.34667969 C34.80588373 82.34988731 34.70446311 93.35314326 34.60693359 104.35644531 C28.45458984 104.45410156 28.45458984 104.45410156 26.60693359 104.35644531 C24.50584799 102.25535971 25.42090755 97.60930906 25.40161133 94.70581055 C25.39171173 93.79858246 25.38181213 92.89135437 25.37161255 91.95663452 C25.33989764 88.94279637 25.31520081 85.92894243 25.29052734 82.91503906 C25.26996643 80.83138101 25.2489702 78.7477272 25.22755432 76.66407776 C25.1722445 71.168258 25.12287466 65.67240005 25.07470703 60.17651367 C25.02455689 54.57304467 24.96883705 48.96963143 24.91357422 43.36621094 C24.80588371 32.3630015 24.70497749 21.35974494 24.60693359 10.35644531 C13.71693359 10.02644531 2.82693359 9.69644531 -8.39306641 9.35644531 C-9.05306641 7.37644531 -9.71306641 5.39644531 -10.39306641 3.35644531 C-7.69991724 -0.47783386 -4.2793921 -0.05572482 0 0 Z " fill="#E55342" transform="translate(827.39306640625,718.6435546875)"/>
<path d="M0 0 C2.53057192 1.26528596 2.6656826 2.13827035 3.72412109 4.71850586 C4.05141205 5.50700424 4.378703 6.29550262 4.71591187 7.1078949 C5.23938705 8.39833458 5.23938705 8.39833458 5.7734375 9.71484375 C6.32096176 11.04220299 6.32096176 11.04220299 6.87954712 12.39637756 C8.05104342 15.24085735 9.21305716 18.08910622 10.375 20.9375 C11.15043399 22.82381763 11.92646863 24.70988846 12.703125 26.59570312 C14.47526574 30.90504593 16.24623754 35.21479816 17.99627686 39.53317261 C18.70320803 41.27058116 19.4189124 43.00443285 20.14093018 44.73562622 C20.50772888 45.62539154 20.87452759 46.51515686 21.25244141 47.43188477 C21.58724518 48.2357814 21.92204895 49.03967804 22.26699829 49.86793518 C23 52 23 52 23 55 C8.48 55 -6.04 55 -21 55 C-21.33 54.34 -21.66 53.68 -22 53 C-21.09956651 50.36699513 -20.12914516 47.83912076 -19.0625 45.2734375 C-18.74474609 44.49296051 -18.42699219 43.71248352 -18.09960938 42.90835571 C-17.07361709 40.39421836 -16.03673044 37.88472553 -15 35.375 C-14.33136571 33.73725073 -13.66338971 32.09923253 -12.99609375 30.4609375 C-8.81844712 20.2382699 -4.47660724 10.09509906 0 0 Z " fill="#FDFDFD" transform="translate(1003,734)"/>
<path d="M0 0 C2.64698431 1.32349215 2.81759479 2.49655668 3.93945312 5.20922852 C4.31324097 6.10428604 4.68702881 6.99934357 5.07214355 7.92152405 C5.67065125 9.38542824 5.67065125 9.38542824 6.28125 10.87890625 C6.69540161 11.87953598 7.10955322 12.88016571 7.53625488 13.91111755 C8.41369227 16.03582412 9.28773938 18.16193339 10.15869141 20.28930664 C11.48591639 23.52813178 12.82606555 26.76137382 14.16796875 29.99414062 C15.0190153 32.05957209 15.86929987 34.12531772 16.71875 36.19140625 C17.11775513 37.15317276 17.51676025 38.11493927 17.92785645 39.10585022 C18.30164429 40.02297287 18.67543213 40.94009552 19.06054688 41.88500977 C19.3876062 42.68141373 19.71466553 43.47781769 20.05163574 44.2983551 C21.27718205 47.7896201 22.10258885 51.41035541 23 55 C8.48 55 -6.04 55 -21 55 C-21.33 54.34 -21.66 53.68 -22 53 C-21.25875306 50.79567638 -20.40880257 48.62772828 -19.515625 46.48046875 C-19.24308899 45.8187114 -18.97055298 45.15695404 -18.6897583 44.47514343 C-18.10255744 43.05079019 -17.51208149 41.62778366 -16.91870117 40.20599365 C-16.00976969 38.02345906 -15.11314319 35.83629721 -14.22070312 33.64697266 C-12.71292076 29.94892235 -11.19641091 26.254552 -9.67578125 22.56176758 C-8.73533733 20.27687575 -7.79733467 17.9909907 -6.859375 15.70507812 C-6.25535532 14.23691868 -5.65119411 12.76881746 -5.046875 11.30078125 C-4.63124298 10.28676994 -4.63124298 10.28676994 -4.20721436 9.25227356 C-2.90988133 6.10816739 -1.58024687 3.01323913 0 0 Z " fill="#FDFDFD" transform="translate(230,734)"/>
<path d="M0 0 C1.19114651 3.57343954 0.73700045 4.38925897 -0.58203125 7.81640625 C-1.11473633 9.20956055 -1.11473633 9.20956055 -1.65820312 10.63085938 C-2.03912109 11.59830078 -2.42003906 12.56574219 -2.8125 13.5625 C-3.36647461 15.01946289 -3.36647461 15.01946289 -3.93164062 16.50585938 C-6.72660679 23.72660679 -6.72660679 23.72660679 -9 26 C-9 24.02 -9 22.04 -9 20 C-8.34 20 -7.68 20 -7 20 C-7.33 19.01 -7.66 18.02 -8 17 C-7.0390625 13.96875 -7.0390625 13.96875 -5.625 10.5 C-5.16351562 9.3553125 -4.70203125 8.210625 -4.2265625 7.03125 C-3.82179688 6.0309375 -3.41703125 5.030625 -3 4 C-2.67 3.01 -2.34 2.02 -2 1 C-1.34 0.67 -0.68 0.34 0 0 Z " fill="#FDFDFD" transform="translate(1161,893)"/>
<path d="M0 0 C0.66 0.33 1.32 0.66 2 1 C0.41856529 2.43958847 -1.16522779 3.87658645 -2.75 5.3125 C-3.63171875 6.11300781 -4.5134375 6.91351563 -5.421875 7.73828125 C-7.55449328 9.60916911 -9.70187943 11.34084286 -12 13 C-12.66 12.67 -13.32 12.34 -14 12 C-12.41856529 10.56041153 -10.83477221 9.12341355 -9.25 7.6875 C-8.36828125 6.88699219 -7.4865625 6.08648437 -6.578125 5.26171875 C-4.44550672 3.39083089 -2.29812057 1.65915714 0 0 Z " fill="#FDFDFD" transform="translate(508,259)"/>
</svg>
